<svg xmlns="http://www.w3.org/2000/svg" viewBox="0 0 89.55 252.06"><defs><style>.cls-1{fill:#f9b223}.cls-1,.cls-10,.cls-6,.cls-7,.cls-8,.cls-9{fill-rule:evenodd}.cls-2{fill:#bcbbbb}.cls-3{fill:#d1d0cd}.cls-4{fill:#999898}.cls-5{fill:#edece8}.cls-6{fill:#db8b0b}.cls-7{fill:#ea9b0f}.cls-8{fill:#fcbe32}.cls-9{fill:#ffe448}.cls-10{fill:#fff064}.cls-11{fill:#fff4dc}.cls-12{fill:#fff}.cls-13{fill:#f4eddc}</style></defs><g id="Слой_2" data-name="Слой 2"><g id="beer"><path class="cls-1" d="M77.06 134.65l8.08-52 4.41-29.94-1.65-27.27-.74-14.6-6.79-8.73L66.5.73 51.16 2.57 36.19 0 20.76.64l-9.83 4-9.74 5.74-.55 17.17L0 49.87l3.4 26.45 7 35.92 6.7 39.49 4.41 36.19-.94 10.08-5.11 24.16-5.63 17.65 5.51 8.08 15.8 3.68 19.59.49 19.35-3.43 11.51-6.37-2.2-7.84-3-11-7.81 4.84-7.59 1 7.59-1 7.81-4.84-5.42-22 .3-24.42zM47.67 29.3l23.79-2.85 5.48-.34-5.48.34zm-4.13-18.55l12.46-.1-22.32.28z"/><path class="cls-2" d="M9.83 239.81l5.51 8.08V234.3l-5.51 5.51z"/><path class="cls-3" d="M15.34 247.89l15.8-8.32-15.8-5.27v13.59z"/><path class="cls-2" d="M15.34 247.89l15.8 3.68v-12l-15.8 8.32z"/><path class="cls-4" d="M31.14 251.57l19.59.49-19.59-12.49v12z"/><path class="cls-4" d="M50.73 252.06l8.08-8.09 11.27 4.66-19.35 3.43z"/><path class="cls-4" d="M70.08 248.63l1.71-9.31 9.8 2.94-11.51 6.37z"/><path class="cls-2" d="M81.59 242.26l-2.2-7.84-7.6 4.9 9.8 2.94zm-9.8-2.94l-12.98 4.65 11.27 4.66 1.71-9.31z"/><path class="cls-5" d="M58.81 243.97l-5.39-13.71-2.69 21.8 8.08-8.09z"/><path class="cls-2" d="M50.73 252.06l-19.59-12.49 22.28-9.31-2.69 21.8z"/><path class="cls-5" d="M31.14 239.57l22.28-9.31-21.55-1.23-.73 10.54z"/><path class="cls-4" d="M31.87 229.03l-16.53 5.27 15.8 5.27.73-10.54z"/><path class="cls-2" d="M31.87 229.03l-16.41-6.85-.12 12.12 16.53-5.27z"/><path class="cls-4" d="M15.46 222.18l-5.63 17.63 5.51-5.51.12-12.12z"/><path class="cls-3" d="M53.42 230.26l15.19-1.96-9.8 15.67-5.39-13.71z"/><path class="cls-5" d="M68.61 228.3l3.18 11.02-12.98 4.65 9.8-15.67z"/><path class="cls-3" d="M68.61 228.3l10.78 6.12-7.6 4.9-3.18-11.02z"/><path class="cls-4" d="M68.61 228.3l7.81-4.84 2.97 10.96-10.78-6.12z"/><path class="cls-6" d="M15.46 222.18l13.56-5.24 2.85 12.09-16.41-6.85z"/><path class="cls-7" d="M29.02 216.94l24.62-.64-21.77 12.73-2.85-12.09z"/><path class="cls-1" d="M31.87 229.03l21.77-12.73-.22 13.96-21.55-1.23z"/><path class="cls-7" d="M53.42 230.26l15.19-1.96-14.97-12-.22 13.96z"/><path class="cls-1" d="M53.64 216.3l22.78 7.16-7.81 4.84-14.97-12zm-38.18 5.88l5.11-24.16 11.39-5.88-2.94 24.8-13.56 5.24z"/><path class="cls-1" d="M29.02 216.94l24.62-.64-21.68-24.16-2.94 24.8z"/><path class="cls-8" d="M53.64 216.3L71 201.51l5.42 21.95-22.78-7.16z"/><path class="cls-7" d="M31.96 192.14l22.32-5.51-.64 29.67-21.68-24.16z"/><path class="cls-9" d="M53.64 216.3L71 201.51l-16.72-14.88-.64 29.67z"/><path class="cls-6" d="M20.57 198.02l11.39-5.88-10.47-4.22-.92 10.1z"/><path class="cls-1" d="M21.49 187.92l6.62-21.86 3.85 26.08-10.47-4.22z"/><path class="cls-1" d="M28.11 166.06l26.17 20.57-22.32 5.51-3.85-26.08z"/><path class="cls-7" d="M28.11 166.06l29.66-4.04-3.49 24.61-26.17-20.57z"/><path class="cls-9" d="M57.77 162.02l13.5 14.97-16.99 9.64 3.49-24.61z"/><path class="cls-8" d="M54.28 186.63L71 201.51l.27-24.52-16.99 9.64z"/><path class="cls-6" d="M28.11 166.06l-6.62 21.86-4.41-36.19 11.03 14.33z"/><path class="cls-1" d="M17.08 151.73l9.83-16.72 1.2 31.05-11.03-14.33z"/><path class="cls-1" d="M26.91 135.01l1.2 31.05 29.66-4.04-30.86-27.01z"/><path class="cls-8" d="M57.77 162.02l19.29-27.37-5.79 42.34-13.5-14.97z"/><path class="cls-6" d="M10.38 112.24l6.7 39.49 9.83-16.72-16.53-22.77z"/><path class="cls-7" d="M26.91 135.01l36.19 3.13-5.33 23.88-30.86-27.01z"/><path class="cls-10" d="M63.1 138.14l-5.33 23.88 19.29-27.37-13.96 3.49z"/><path class="cls-1" d="M26.91 135.01l40.14-27.27-3.95 30.4-36.19-3.13z"/><path class="cls-9" d="M67.05 107.74l-3.95 30.4 13.96-3.49-10.01-26.91z"/><path class="cls-7" d="M24.8 102.41l2.11 32.6 40.14-27.27-42.25-5.33z"/><path class="cls-1" d="M24.8 102.41l-14.42 9.83 16.53 22.77-2.11-32.6z"/><path class="cls-8" d="M67.05 107.74l18.09-25.08-8.08 51.99-10.01-26.91z"/><path class="cls-6" d="M3.4 76.32l6.98 35.92 14.42-9.83L3.4 76.32z"/><path class="cls-1" d="M15.25 51.53L3.4 76.32l21.4 26.09-9.55-50.88zm9.55 50.88l42.25-26.18v31.51l-42.25-5.33z"/><path class="cls-9" d="M67.05 76.23v31.51l18.09-25.08-18.09-6.43z"/><path class="cls-7" d="M15.25 51.53l9.55 50.88 42.25-26.18-51.8-24.7z"/><path class="cls-8" d="M15.25 51.53L0 49.87l3.4 26.45 11.85-24.79zm51.8 24.7l22.5-23.51-4.41 29.94-18.09-6.43z"/><path class="cls-1" d="M15.25 51.53L47.67 29.3l19.38 46.93-51.8-24.7z"/><path class="cls-8" d="M71.46 26.45l16.44-1.01 1.65 27.28-18.09-26.27z"/><path class="cls-7" d="M47.67 29.3l-28.2.09-4.22 22.14L47.67 29.3z"/><path class="cls-1" d="M19.47 29.39L.64 27.55l14.61 23.98 4.22-22.14z"/><path class="cls-6" d="M.64 27.55L0 49.87l15.25 1.66L.64 27.55z"/><path class="cls-3" d="M.64 27.55l.55-17.17 17.55.55L.64 27.55z"/><path class="cls-5" d="M.64 27.55l18.83 1.84-.73-18.46L.64 27.55z"/><path class="cls-3" d="M19.47 29.39l14.24-18.46H18.74l.73 18.46z"/><path class="cls-2" d="M19.47 29.39l28.2-.09-13.96-18.37-14.24 18.46z"/><path class="cls-4" d="M33.71 10.93L47.67 29.3l8.36-18.65-22.32.28z"/><path class="cls-2" d="M56.03 10.65L47.67 29.3l23.79-2.85-15.43-15.8z"/><path class="cls-3" d="M56.03 10.65l15.43 15.8 1.47-15.61-16.9-.19z"/><path class="cls-5" d="M71.46 26.45l16.44-1.01-14.97-14.6-1.47 15.61z"/><path class="cls-2" d="M72.93 10.84h14.23l.74 14.6-14.97-14.6z"/><path class="cls-11" d="M1.19 10.38l9.74-5.79 7.81 6.34-17.55-.55z"/><path class="cls-12" d="M10.93 4.59l7.81 6.34 9.92-4.96-7.9-5.33-9.83 3.95z"/><path class="cls-11" d="M18.74 10.93h14.97l-5.05-4.96-9.92 4.96z"/><path class="cls-13" d="M28.66 5.97L36.19 0l7.34 10.75-9.82.18-5.05-4.96z"/><path class="cls-11" d="M20.76.64L36.19 0l-7.53 5.97-7.9-5.33z"/><path class="cls-12" d="M36.19 0l14.97 2.57-7.63 8.18L36.19 0z"/><path class="cls-5" d="M51.16 2.57l-7.63 8.18 12.5-.1-4.87-8.08z"/><path class="cls-12" d="M51.16 2.57l4.87 8.08L66.5.73 51.16 2.57z"/><path class="cls-11" d="M56.03 10.65l16.9.19L66.5.73l-10.47 9.92z"/><path class="cls-13" d="M66.5.73l6.43 10.11 3.85-6.43L66.5.73z"/><path class="cls-11" d="M72.93 10.84h14.23L76.78 4.41l-3.85 6.43z"/><path class="cls-11" d="M76.78 4.41l10.38 6.43-6.8-8.73-3.58 2.3z"/><path class="cls-12" d="M66.5.73l10.28 3.68 3.58-2.3L66.5.73z"/><path class="cls-9" d="M71.46 26.45l-4.41 49.78 22.5-23.51-18.09-26.27z"/><path class="cls-10" d="M47.67 29.3l23.79-2.85-4.41 49.78L47.67 29.3z"/></g></g></svg>