<svg xmlns="http://www.w3.org/2000/svg" viewBox="0 0 89.55 252.06"><defs><style>.cls-1{fill:#f9b223;}.cls-1,.cls-10,.cls-6,.cls-7,.cls-8,.cls-9{fill-rule:evenodd;}.cls-2{fill:#bcbbbb;}.cls-3{fill:#d1d0cd;}.cls-4{fill:#999898;}.cls-5{fill:#edece8;}.cls-6{fill:#db8b0b;}.cls-7{fill:#ea9b0f;}.cls-8{fill:#fcbe32;}.cls-9{fill:#ffe448;}.cls-10{fill:#fff064;}.cls-11{fill:#fff4dc;}.cls-12{fill:#fff;}.cls-13{fill:#f4eddc;}</style></defs><title>Ресурс 88</title><g id="Слой_2" data-name="Слой 2"><g id="beer"><path class="cls-1" d="M77.06,134.65l8.08-52,4.41-29.94L87.9,25.44h0l-.74-14.6L80.37,2.11,66.5.73,51.16,2.57,36.19,0,20.76.64l-9.83,4L1.19,10.38.64,27.55h0L0,49.87,3.4,76.32l7,35.92,6.7,39.49,4.41,36.19L20.57,198l-5.11,24.16L9.83,239.81l5.51,8.08,15.8,3.68,19.59.49,19.35-3.43,11.51-6.37-2.2-7.84-3-11-7.81,4.84-7.59,1,7.59-1,7.81-4.84-5.42-22L71.27,177ZM47.67,29.3l23.79-2.85,5.48-.34-5.48.34ZM43.54,10.75,56,10.65l-22.32.28Z"/><polygon class="cls-2" points="9.83 239.81 15.34 247.89 15.34 234.3 9.83 239.81"/><polygon class="cls-3" points="15.34 247.89 31.14 239.57 15.34 234.3 15.34 247.89"/><polygon class="cls-2" points="15.34 247.89 31.14 251.57 31.14 239.57 15.34 247.89"/><polygon class="cls-4" points="31.14 251.57 50.73 252.06 31.14 239.57 31.14 251.57"/><polygon class="cls-4" points="50.73 252.06 58.81 243.97 70.08 248.63 50.73 252.06"/><polygon class="cls-4" points="70.08 248.63 71.79 239.32 81.59 242.26 70.08 248.63"/><polygon class="cls-2" points="81.59 242.26 79.39 234.42 71.79 239.32 81.59 242.26"/><polygon class="cls-2" points="71.79 239.32 58.81 243.97 70.08 248.63 71.79 239.32"/><polygon class="cls-5" points="58.81 243.97 53.42 230.26 50.73 252.06 58.81 243.97"/><polygon class="cls-2" points="50.73 252.06 31.14 239.57 53.42 230.26 50.73 252.06"/><polygon class="cls-5" points="31.14 239.57 53.42 230.26 31.87 229.03 31.14 239.57"/><polygon class="cls-4" points="31.87 229.03 15.34 234.3 31.14 239.57 31.87 229.03"/><polygon class="cls-2" points="31.87 229.03 15.46 222.18 15.34 234.3 31.87 229.03"/><polygon class="cls-4" points="15.46 222.18 9.83 239.81 15.34 234.3 15.46 222.18"/><polygon class="cls-3" points="53.42 230.26 68.61 228.3 58.81 243.97 53.42 230.26"/><polygon class="cls-5" points="68.61 228.3 71.79 239.32 58.81 243.97 68.61 228.3"/><polygon class="cls-3" points="68.61 228.3 79.39 234.42 71.79 239.32 68.61 228.3"/><polygon class="cls-4" points="68.61 228.3 76.42 223.46 79.39 234.42 68.61 228.3"/><polygon class="cls-6" points="15.46 222.18 29.02 216.94 31.87 229.03 15.46 222.18"/><polygon class="cls-7" points="29.02 216.94 53.64 216.3 31.87 229.03 29.02 216.94"/><polygon class="cls-1" points="31.87 229.03 53.64 216.3 53.42 230.26 31.87 229.03"/><polygon class="cls-7" points="53.42 230.26 68.61 228.3 53.64 216.3 53.42 230.26"/><polygon class="cls-1" points="53.64 216.3 76.42 223.46 68.61 228.3 53.64 216.3"/><polygon class="cls-1" points="15.46 222.18 20.57 198.02 31.96 192.14 29.02 216.94 15.46 222.18"/><polygon class="cls-1" points="29.02 216.94 53.64 216.3 31.96 192.14 29.02 216.94"/><polygon class="cls-8" points="53.64 216.3 71 201.51 76.42 223.46 53.64 216.3"/><polygon class="cls-7" points="31.96 192.14 54.28 186.63 53.64 216.3 31.96 192.14"/><polygon class="cls-9" points="53.64 216.3 71 201.51 54.28 186.63 53.64 216.3"/><polygon class="cls-6" points="20.57 198.02 31.96 192.14 21.49 187.92 20.57 198.02"/><polygon class="cls-1" points="21.49 187.92 28.11 166.06 31.96 192.14 21.49 187.92"/><polygon class="cls-1" points="28.11 166.06 54.28 186.63 31.96 192.14 28.11 166.06"/><polygon class="cls-7" points="28.11 166.06 57.77 162.02 54.28 186.63 28.11 166.06"/><polygon class="cls-9" points="57.77 162.02 71.27 176.99 54.28 186.63 57.77 162.02"/><polygon class="cls-8" points="54.28 186.63 71 201.51 71.27 176.99 54.28 186.63"/><polygon class="cls-6" points="28.11 166.06 21.49 187.92 17.08 151.73 28.11 166.06"/><polygon class="cls-1" points="17.08 151.73 26.91 135.01 28.11 166.06 17.08 151.73"/><polygon class="cls-1" points="26.91 135.01 28.11 166.06 57.77 162.02 26.91 135.01"/><polygon class="cls-8" points="57.77 162.02 77.06 134.65 71.27 176.99 57.77 162.02"/><polygon class="cls-6" points="10.38 112.24 17.08 151.73 26.91 135.01 10.38 112.24"/><polygon class="cls-7" points="26.91 135.01 63.1 138.14 57.77 162.02 26.91 135.01"/><polygon class="cls-10" points="63.1 138.14 57.77 162.02 77.06 134.65 63.1 138.14"/><polygon class="cls-1" points="26.91 135.01 67.05 107.74 63.1 138.14 26.91 135.01"/><polygon class="cls-9" points="67.05 107.74 63.1 138.14 77.06 134.65 67.05 107.74"/><polygon class="cls-7" points="24.8 102.41 26.91 135.01 67.05 107.74 24.8 102.41"/><polygon class="cls-1" points="24.8 102.41 10.38 112.24 26.91 135.01 24.8 102.41"/><polygon class="cls-8" points="67.05 107.74 85.14 82.66 77.06 134.65 67.05 107.74"/><polygon class="cls-6" points="3.4 76.32 10.38 112.24 24.8 102.41 3.4 76.32"/><polygon class="cls-1" points="15.25 51.53 3.4 76.32 24.8 102.41 15.25 51.53"/><polygon class="cls-1" points="24.8 102.41 67.05 76.23 67.05 107.74 24.8 102.41"/><polygon class="cls-9" points="67.05 76.23 67.05 107.74 85.14 82.66 67.05 76.23"/><polygon class="cls-7" points="15.25 51.53 24.8 102.41 67.05 76.23 15.25 51.53"/><polygon class="cls-8" points="15.25 51.53 0 49.87 3.4 76.32 15.25 51.53"/><polygon class="cls-8" points="67.05 76.23 89.55 52.72 85.14 82.66 67.05 76.23"/><polygon class="cls-1" points="15.25 51.53 47.67 29.3 67.05 76.23 15.25 51.53"/><polygon class="cls-8" points="71.46 26.45 87.9 25.44 89.55 52.72 71.46 26.45"/><polygon class="cls-7" points="47.67 29.3 19.47 29.39 15.25 51.53 47.67 29.3"/><polygon class="cls-1" points="19.47 29.39 0.64 27.55 15.25 51.53 19.47 29.39"/><polygon class="cls-6" points="0.64 27.55 0 49.87 15.25 51.53 0.64 27.55"/><polygon class="cls-3" points="0.64 27.55 1.19 10.38 18.74 10.93 0.64 27.55"/><polygon class="cls-5" points="0.64 27.55 19.47 29.39 18.74 10.93 0.64 27.55"/><polygon class="cls-3" points="19.47 29.39 33.71 10.93 18.74 10.93 19.47 29.39"/><polygon class="cls-2" points="19.47 29.39 47.67 29.3 33.71 10.93 19.47 29.39"/><polygon class="cls-4" points="33.71 10.93 47.67 29.3 56.03 10.65 33.71 10.93"/><polygon class="cls-2" points="56.03 10.65 47.67 29.3 71.46 26.45 56.03 10.65"/><polygon class="cls-3" points="56.03 10.65 71.46 26.45 72.93 10.84 56.03 10.65"/><polygon class="cls-5" points="71.46 26.45 87.9 25.44 72.93 10.84 71.46 26.45"/><polygon class="cls-2" points="72.93 10.84 87.16 10.84 87.9 25.44 72.93 10.84"/><polygon class="cls-11" points="1.19 10.38 10.93 4.59 18.74 10.93 1.19 10.38"/><polygon class="cls-12" points="10.93 4.59 18.74 10.93 28.66 5.97 20.76 0.64 10.93 4.59"/><polygon class="cls-11" points="18.74 10.93 33.71 10.93 28.66 5.97 18.74 10.93"/><polygon class="cls-13" points="28.66 5.97 36.19 0 43.53 10.75 33.71 10.93 28.66 5.97"/><polygon class="cls-11" points="20.76 0.64 36.19 0 28.66 5.97 20.76 0.64"/><polygon class="cls-12" points="36.19 0 51.16 2.57 43.53 10.75 36.19 0"/><polygon class="cls-5" points="51.16 2.57 43.53 10.75 56.03 10.65 51.16 2.57"/><polygon class="cls-12" points="51.16 2.57 56.03 10.65 66.5 0.73 51.16 2.57"/><polygon class="cls-11" points="56.03 10.65 72.93 10.84 66.5 0.73 56.03 10.65"/><polygon class="cls-13" points="66.5 0.73 72.93 10.84 76.78 4.41 66.5 0.73"/><polygon class="cls-11" points="72.93 10.84 87.16 10.84 76.78 4.41 72.93 10.84"/><polygon class="cls-11" points="76.78 4.41 87.16 10.84 80.36 2.11 76.78 4.41"/><polygon class="cls-12" points="66.5 0.73 76.78 4.41 80.36 2.11 66.5 0.73"/><polygon class="cls-9" points="71.46 26.45 67.05 76.23 89.55 52.72 71.46 26.45"/><polygon class="cls-10" points="47.67 29.3 71.46 26.45 67.05 76.23 47.67 29.3"/></g></g></svg>