<svg xmlns="http://www.w3.org/2000/svg" viewBox="0 0 90.38 253.04"><defs><style>.cls-1{stroke:#294dd2;stroke-linecap:round;stroke-linejoin:round;stroke-width:.75px}</style></defs><g id="Слой_2" data-name="Слой 2"><g id="main_layout_copy" data-name="main layout copy"><path class="cls-1" d="M10.21 240.41l5.52 8.09v-13.61l-5.52 5.52z"/><path class="cls-1" d="M15.73 248.5l15.81-8.34-15.81-5.27v13.61zm0 0l15.81 3.68v-12.02l-15.81 8.34zm15.81 3.68l19.61.49-19.61-12.51v12.02zm19.61.49l8.09-8.09 11.28 4.65-19.37 3.44zm19.37-3.44l1.71-9.31 9.81 2.94-11.52 6.37z"/><path class="cls-1" d="M82.04 242.86l-2.21-7.85-7.6 4.91 9.81 2.94zm-9.81-2.94l-12.99 4.66 11.28 4.65 1.71-9.31zm-12.99 4.66l-5.39-13.73-2.7 21.82 8.09-8.09zm-8.09 8.09l-19.61-12.51 22.31-9.31-2.7 21.82zm-19.61-12.51l22.31-9.31-21.58-1.23-.73 10.54z"/><path class="cls-1" d="M32.27 229.62l-16.54 5.27 15.81 5.27.73-10.54zm0 0l-16.42-6.86-.12 12.13 16.54-5.27zm-16.42-6.86l-5.64 17.65 5.52-5.52.12-12.13zm38 8.09l15.2-1.96-9.81 15.69-5.39-13.73zm15.2-1.96l3.18 11.03-12.99 4.66 9.81-15.69z"/><path class="cls-1" d="M69.05 228.89l10.78 6.12-7.6 4.91-3.18-11.03z"/><path class="cls-1" d="M69.05 228.89l7.81-4.85 2.97 10.97-10.78-6.12zm-53.2-6.13l13.58-5.24 2.84 12.1-16.42-6.86zm13.58-5.24l24.63-.65-21.79 12.75-2.84-12.1zm2.84 12.1l21.79-12.75-.21 13.98-21.58-1.23zm21.58 1.23l15.2-1.96-14.99-12.02-.21 13.98z"/><path class="cls-1" d="M54.06 216.87l22.8 7.17-7.81 4.85-14.99-12.02zm-38.21 5.89l5.12-24.18 11.4-5.88-2.94 24.82-13.58 5.24zm13.58-5.24l24.63-.65-21.69-24.17-2.94 24.82z"/><path class="cls-1" d="M54.06 216.87l17.38-14.8 5.42 21.97-22.8-7.17zM32.37 192.7l22.34-5.52-.65 29.69-21.69-24.17z"/><path class="cls-1" d="M54.06 216.87l17.38-14.8-16.73-14.89-.65 29.69zm-33.09-18.29l11.4-5.88-10.48-4.23-.92 10.11zm.92-10.11l6.62-21.88 3.86 26.11-10.48-4.23z"/><path class="cls-1" d="M28.51 166.59l26.2 20.59-22.34 5.52-3.86-26.11z"/><path class="cls-1" d="M28.51 166.59l29.69-4.05-3.49 24.64-26.2-20.59zm29.69-4.05l13.51 14.99-17 9.65 3.49-24.64z"/><path class="cls-1" d="M54.71 187.18l16.73 14.89.27-24.54-17 9.65zm-26.2-20.59l-6.62 21.88-4.42-36.22 11.04 14.34zm-11.04-14.34l9.84-16.74 1.2 31.08-11.04-14.34z"/><path class="cls-1" d="M27.31 135.51l1.2 31.08 29.69-4.05-30.89-27.03zm30.89 27.03l19.31-27.39-5.8 42.38-13.51-14.99zm-47.44-49.82l6.71 39.53 9.84-16.74-16.55-22.79z"/><path class="cls-1" d="M27.31 135.51l36.22 3.13-5.33 23.9-30.89-27.03z"/><path class="cls-1" d="M63.53 138.64l-5.33 23.9 19.31-27.39-13.98 3.49zm-36.22-3.13l40.17-27.3-3.95 30.43-36.22-3.13z"/><path class="cls-1" d="M67.48 108.21l-3.95 30.43 13.98-3.49-10.03-26.94z"/><path class="cls-1" d="M25.2 102.88l2.11 32.63 40.17-27.3-42.28-5.33z"/><path class="cls-1" d="M25.2 102.88l-14.44 9.84 16.55 22.79-2.11-32.63zm42.28 5.33l18.12-25.1-8.09 52.04-10.03-26.94z"/><path class="cls-1" d="M3.78 76.77l6.98 35.95 14.44-9.84L3.78 76.77z"/><path class="cls-1" d="M15.64 51.95L3.78 76.77l21.42 26.11-9.56-50.93z"/><path class="cls-1" d="M25.2 102.88l42.28-26.2v31.53l-42.28-5.33zm42.28-26.2v31.53l18.12-25.1-18.12-6.43z"/><path class="cls-1" d="M15.64 51.95l9.56 50.93 42.28-26.2-51.84-24.73zm0 0L.38 50.29l3.4 26.48 11.86-24.82zm51.84 24.73l22.53-23.54-4.41 29.97-18.12-6.43z"/><path class="cls-1" d="M15.64 51.95L48.09 29.7l19.39 46.98-51.84-24.73zm56.26-25.1l16.45-1.01 1.66 27.3L71.9 26.85z"/><path class="cls-1" d="M48.09 29.7l-28.23.09-4.22 22.16L48.09 29.7zm-28.23.09L1.02 27.95l14.62 24 4.22-22.16z"/><path class="cls-1" d="M1.02 27.95L.38 50.29l15.26 1.66-14.62-24zm0 0l.55-17.19 17.56.55L1.02 27.95z"/><path class="cls-1" d="M1.02 27.95l18.84 1.84-.73-18.48L1.02 27.95z"/><path class="cls-1" d="M19.86 29.79l14.25-18.48H19.13l.73 18.48zm0 0l28.23-.09-13.98-18.39-14.25 18.48z"/><path class="cls-1" d="M34.11 11.31L48.09 29.7l8.36-18.66-22.34.27z"/><path class="cls-1" d="M56.45 11.04L48.09 29.7l23.81-2.85-15.45-15.81z"/><path class="cls-1" d="M56.45 11.04L71.9 26.85l1.47-15.63-16.92-.18zM71.9 26.85l16.45-1.01-14.98-14.62-1.47 15.63z"/><path class="cls-1" d="M73.37 11.22h14.25l.73 14.62-14.98-14.62zm-71.8-.46l9.74-5.79 7.82 6.34-17.56-.55z"/><path class="cls-1" d="M11.31 4.97l7.82 6.34 9.93-4.96-7.91-5.33-9.84 3.95z"/><path class="cls-1" d="M19.13 11.31h14.98l-5.05-4.96-9.93 4.96z"/><path class="cls-1" d="M29.06 6.35L36.6.38l7.35 10.75-9.84.18-5.05-4.96z"/><path class="cls-1" d="M21.15 1.02L36.6.38l-7.54 5.97-7.91-5.33zM36.6.38l14.98 2.57-7.63 8.18L36.6.38zm14.98 2.57l-7.63 8.18 12.5-.09-4.87-8.09z"/><path class="cls-1" d="M51.58 2.95l4.87 8.09 10.48-9.93-15.35 1.84zm4.87 8.09l16.92.18-6.44-10.11-10.48 9.93z"/><path class="cls-1" d="M66.93 1.11l6.44 10.11 3.86-6.43-10.3-3.68zm6.44 10.11h14.25L77.23 4.79l-3.86 6.43z"/><path class="cls-1" d="M77.23 4.79l10.39 6.43-6.81-8.73-3.58 2.3z"/><path class="cls-1" d="M66.93 1.11l10.3 3.68 3.58-2.3-13.88-1.38zm4.97 25.74l-4.42 49.83 22.53-23.54L71.9 26.85zM48.09 29.7l23.81-2.85-4.42 49.83L48.09 29.7z"/></g></g></svg>