<svg xmlns="http://www.w3.org/2000/svg" viewBox="0 0 90.38 253.04"><defs><style>.cls-1{stroke:#294dd2;stroke-linecap:round;stroke-linejoin:round;stroke-width:0.75px;}</style></defs><title>Ресурс 85</title><g id="Слой_2" data-name="Слой 2"><g id="main_layout_copy" data-name="main layout copy"><polygon class="cls-1" points="10.21 240.41 15.73 248.5 15.73 234.89 10.21 240.41"/><polygon class="cls-1" points="15.73 248.5 31.54 240.16 15.73 234.89 15.73 248.5"/><polygon class="cls-1" points="15.73 248.5 31.54 252.18 31.54 240.16 15.73 248.5"/><polygon class="cls-1" points="31.54 252.18 51.15 252.67 31.54 240.16 31.54 252.18"/><polygon class="cls-1" points="51.15 252.67 59.24 244.58 70.52 249.23 51.15 252.67"/><polygon class="cls-1" points="70.52 249.23 72.23 239.92 82.04 242.86 70.52 249.23"/><polygon class="cls-1" points="82.04 242.86 79.83 235.01 72.23 239.92 82.04 242.86"/><polygon class="cls-1" points="72.23 239.92 59.24 244.58 70.52 249.23 72.23 239.92"/><polygon class="cls-1" points="59.24 244.58 53.85 230.85 51.15 252.67 59.24 244.58"/><polygon class="cls-1" points="51.15 252.67 31.54 240.16 53.85 230.85 51.15 252.67"/><polygon class="cls-1" points="31.54 240.16 53.85 230.85 32.27 229.62 31.54 240.16"/><polygon class="cls-1" points="32.27 229.62 15.73 234.89 31.54 240.16 32.27 229.62"/><polygon class="cls-1" points="32.27 229.62 15.85 222.76 15.73 234.89 32.27 229.62"/><polygon class="cls-1" points="15.85 222.76 10.21 240.41 15.73 234.89 15.85 222.76"/><polygon class="cls-1" points="53.85 230.85 69.05 228.89 59.24 244.58 53.85 230.85"/><polygon class="cls-1" points="69.05 228.89 72.23 239.92 59.24 244.58 69.05 228.89"/><polygon class="cls-1" points="69.05 228.89 79.83 235.01 72.23 239.92 69.05 228.89"/><polygon class="cls-1" points="69.05 228.89 76.86 224.04 79.83 235.01 69.05 228.89"/><polygon class="cls-1" points="15.85 222.76 29.43 217.52 32.27 229.62 15.85 222.76"/><polygon class="cls-1" points="29.43 217.52 54.06 216.87 32.27 229.62 29.43 217.52"/><polygon class="cls-1" points="32.27 229.62 54.06 216.87 53.85 230.85 32.27 229.62"/><polygon class="cls-1" points="53.85 230.85 69.05 228.89 54.06 216.87 53.85 230.85"/><polygon class="cls-1" points="54.06 216.87 76.86 224.04 69.05 228.89 54.06 216.87"/><polygon class="cls-1" points="15.85 222.76 20.97 198.58 32.37 192.7 29.43 217.52 15.85 222.76"/><polygon class="cls-1" points="29.43 217.52 54.06 216.87 32.37 192.7 29.43 217.52"/><polygon class="cls-1" points="54.06 216.87 71.44 202.07 76.86 224.04 54.06 216.87"/><polygon class="cls-1" points="32.37 192.7 54.71 187.18 54.06 216.87 32.37 192.7"/><polygon class="cls-1" points="54.06 216.87 71.44 202.07 54.71 187.18 54.06 216.87"/><polygon class="cls-1" points="20.97 198.58 32.37 192.7 21.89 188.47 20.97 198.58"/><polygon class="cls-1" points="21.89 188.47 28.51 166.59 32.37 192.7 21.89 188.47"/><polygon class="cls-1" points="28.51 166.59 54.71 187.18 32.37 192.7 28.51 166.59"/><polygon class="cls-1" points="28.51 166.59 58.2 162.54 54.71 187.18 28.51 166.59"/><polygon class="cls-1" points="58.2 162.54 71.71 177.53 54.71 187.18 58.2 162.54"/><polygon class="cls-1" points="54.71 187.18 71.44 202.07 71.71 177.53 54.71 187.18"/><polygon class="cls-1" points="28.51 166.59 21.89 188.47 17.47 152.25 28.51 166.59"/><polygon class="cls-1" points="17.47 152.25 27.31 135.51 28.51 166.59 17.47 152.25"/><polygon class="cls-1" points="27.31 135.51 28.51 166.59 58.2 162.54 27.31 135.51"/><polygon class="cls-1" points="58.2 162.54 77.51 135.15 71.71 177.53 58.2 162.54"/><polygon class="cls-1" points="10.76 112.72 17.47 152.25 27.31 135.51 10.76 112.72"/><polygon class="cls-1" points="27.31 135.51 63.53 138.64 58.2 162.54 27.31 135.51"/><polygon class="cls-1" points="63.53 138.64 58.2 162.54 77.51 135.15 63.53 138.64"/><polygon class="cls-1" points="27.31 135.51 67.48 108.21 63.53 138.64 27.31 135.51"/><polygon class="cls-1" points="67.48 108.21 63.53 138.64 77.51 135.15 67.48 108.21"/><polygon class="cls-1" points="25.2 102.88 27.31 135.51 67.48 108.21 25.2 102.88"/><polygon class="cls-1" points="25.2 102.88 10.76 112.72 27.31 135.51 25.2 102.88"/><polygon class="cls-1" points="67.48 108.21 85.6 83.11 77.51 135.15 67.48 108.21"/><polygon class="cls-1" points="3.78 76.77 10.76 112.72 25.2 102.88 3.78 76.77"/><polygon class="cls-1" points="15.64 51.95 3.78 76.77 25.2 102.88 15.64 51.95"/><polygon class="cls-1" points="25.2 102.88 67.48 76.68 67.48 108.21 25.2 102.88"/><polygon class="cls-1" points="67.48 76.68 67.48 108.21 85.6 83.11 67.48 76.68"/><polygon class="cls-1" points="15.64 51.95 25.2 102.88 67.48 76.68 15.64 51.95"/><polygon class="cls-1" points="15.64 51.95 0.38 50.29 3.78 76.77 15.64 51.95"/><polygon class="cls-1" points="67.48 76.68 90.01 53.14 85.6 83.11 67.48 76.68"/><polygon class="cls-1" points="15.64 51.95 48.09 29.7 67.48 76.68 15.64 51.95"/><polygon class="cls-1" points="71.9 26.85 88.35 25.84 90.01 53.14 71.9 26.85"/><polygon class="cls-1" points="48.09 29.7 19.86 29.79 15.64 51.95 48.09 29.7"/><polygon class="cls-1" points="19.86 29.79 1.02 27.95 15.64 51.95 19.86 29.79"/><polygon class="cls-1" points="1.02 27.95 0.38 50.29 15.64 51.95 1.02 27.95"/><polygon class="cls-1" points="1.02 27.95 1.57 10.76 19.13 11.31 1.02 27.95"/><polygon class="cls-1" points="1.02 27.95 19.86 29.79 19.13 11.31 1.02 27.95"/><polygon class="cls-1" points="19.86 29.79 34.11 11.31 19.13 11.31 19.86 29.79"/><polygon class="cls-1" points="19.86 29.79 48.09 29.7 34.11 11.31 19.86 29.79"/><polygon class="cls-1" points="34.11 11.31 48.09 29.7 56.45 11.04 34.11 11.31"/><polygon class="cls-1" points="56.45 11.04 48.09 29.7 71.9 26.85 56.45 11.04"/><polygon class="cls-1" points="56.45 11.04 71.9 26.85 73.37 11.22 56.45 11.04"/><polygon class="cls-1" points="71.9 26.85 88.35 25.84 73.37 11.22 71.9 26.85"/><polygon class="cls-1" points="73.37 11.22 87.62 11.22 88.35 25.84 73.37 11.22"/><polygon class="cls-1" points="1.57 10.76 11.31 4.97 19.13 11.31 1.57 10.76"/><polygon class="cls-1" points="11.31 4.97 19.13 11.31 29.06 6.35 21.15 1.02 11.31 4.97"/><polygon class="cls-1" points="19.13 11.31 34.11 11.31 29.06 6.35 19.13 11.31"/><polygon class="cls-1" points="29.06 6.35 36.6 0.38 43.95 11.13 34.11 11.31 29.06 6.35"/><polygon class="cls-1" points="21.15 1.02 36.6 0.38 29.06 6.35 21.15 1.02"/><polygon class="cls-1" points="36.6 0.38 51.58 2.95 43.95 11.13 36.6 0.38"/><polygon class="cls-1" points="51.58 2.95 43.95 11.13 56.45 11.04 51.58 2.95"/><polygon class="cls-1" points="51.58 2.95 56.45 11.04 66.93 1.11 51.58 2.95"/><polygon class="cls-1" points="56.45 11.04 73.37 11.22 66.93 1.11 56.45 11.04"/><polygon class="cls-1" points="66.93 1.11 73.37 11.22 77.23 4.79 66.93 1.11"/><polygon class="cls-1" points="73.37 11.22 87.62 11.22 77.23 4.79 73.37 11.22"/><polygon class="cls-1" points="77.23 4.79 87.62 11.22 80.81 2.49 77.23 4.79"/><polygon class="cls-1" points="66.93 1.11 77.23 4.79 80.81 2.49 66.93 1.11"/><polygon class="cls-1" points="71.9 26.85 67.48 76.68 90.01 53.14 71.9 26.85"/><polygon class="cls-1" points="48.09 29.7 71.9 26.85 67.48 76.68 48.09 29.7"/></g></g></svg>