<svg xmlns="http://www.w3.org/2000/svg" viewBox="0 0 268.12 215.32"><defs><style>.cls-1{fill:#1b44dd}.cls-2{fill:#2e51ff}.cls-5{fill:#fff}.cls-11,.cls-7{letter-spacing:.04em}</style></defs><g id="Layer_2" data-name="Layer 2"><g id="solutions_-_dark_copy" data-name="solutions - dark copy"><path class="cls-1" d="M36.68 116.69v60.43H.79l15.38-30.98L0 117.24l36.68-.55z"/><circle cx="134.25" cy="107.66" r="107.66"/><path class="cls-2" d="M134.25 0a107.66 107.66 0 1 0 107.66 107.66A107.66 107.66 0 0 0 134.25 0zm0 207.79a100.13 100.13 0 1 1 100.13-100.13 100.12 100.12 0 0 1-100.13 100.13z"/><circle cx="134.25" cy="107.66" r="95.12" stroke-linecap="round" stroke-linejoin="round" stroke-width="1.25" stroke-dasharray=".62 4.36" fill="none" stroke="#fff"/><path d="M21.39 163.57l15.29 13.55v-14.47l-15.29.92z"/><path class="cls-1" d="M231.44 116.69v60.43h35.88l-15.38-30.98 16.18-28.9-36.68-.55z"/><path d="M246.72 163.57l-15.28 13.55v-14.47l15.28.92z"/><path class="cls-2" d="M21.39 103.14h225.67v60.42H21.39z"/><path d="M21.39 108.06h225.85M21.39 158.75h225.85" fill="none" stroke="#fff" stroke-miterlimit="10" stroke-width="1.31"/><path class="cls-5" d="M149.85 31.35h-20.57a10.83 10.83 0 0 0-10.82 10.82v20.57H127V42.17a2.33 2.33 0 0 1 2.29-2.3h20.57z"/><path class="cls-5" d="M141.74 42.29H130.9a1.06 1.06 0 0 0-1.19 1.17v7.36h12v1.05a2.32 2.32 0 0 1-2.3 2.29h-9.61v8.54h9.61a10.84 10.84 0 0 0 10.83-10.82v-9.59zM95.31 86.58A6.38 6.38 0 0 1 88.64 80a6.55 6.55 0 0 1 6.63-6.67 6.94 6.94 0 0 1 4.94 1.67l-1.43 1.71a5.06 5.06 0 0 0-3.6-1.38A4.35 4.35 0 0 0 91 79.91a4.3 4.3 0 0 0 4.37 4.61 5.26 5.26 0 0 0 3.11-1v-2.38h-4.05l.77-2h5.47v5.4a8.21 8.21 0 0 1-5.36 2.04zm11.98 0a5 5 0 0 1-5.14-5 5.17 5.17 0 1 1 5.14 5zm0-8.18a2.92 2.92 0 0 0-2.92 3.11 3 3 0 0 0 3 3.14 2.92 2.92 0 0 0 2.94-3.1 3 3 0 0 0-3.02-3.15zm11.89 8.18a5 5 0 0 1-5.15-5 5.18 5.18 0 1 1 5.15 5zm0-8.18a2.92 2.92 0 0 0-2.92 3.11 3 3 0 0 0 3 3.14 2.91 2.91 0 0 0 2.93-3.1 3 3 0 0 0-3.01-3.15zm14.1 7.96v-1.62a3.89 3.89 0 0 1-3.28 1.82c-2.28 0-4.5-1.82-4.5-5s2.19-5.05 4.5-5.05a4 4 0 0 1 3.31 1.7V73h2.22v13.36zm-2.78-8a2.85 2.85 0 0 0-2.79 3.12 2.88 2.88 0 0 0 2.79 3.12 3.14 3.14 0 0 0 0-6.24zm14.26-3.29h-4.52v3.51h3.69v2h-3.69v5.73H138V73h6.78zm3.12.64l-1.16-1.5 1.28-1.69 1.16 1.5zm-1 10.65v-9.7h2.22v9.7zm6.65 0h-2.23v-9.7h2.23v2.18a3.41 3.41 0 0 1 3.47-2.36l-.82 1.88H156c-1.95 0-2.48 1.73-2.48 4.31zm14.47-9.9c1.81 0 2.9 1.34 2.9 3.71v6.19H169v-5.51c0-1.55-.62-2.37-1.68-2.37s-1.77.84-1.77 2.4v5.48h-1.9v-5.53c0-1.51-.63-2.35-1.68-2.35s-1.77.92-1.77 2.42v5.46h-1.9v-9.7h1.9v1.47a2.9 2.9 0 0 1 2.52-1.67 2.58 2.58 0 0 1 2.46 1.7 3.3 3.3 0 0 1 2.82-1.7zm8.25 10.08a6.81 6.81 0 0 1-4.12-1.45l1-1.51a5.42 5.42 0 0 0 3.17 1.2c1 0 1.51-.41 1.51-1 0-.75-1-1-2.17-1.35-1.43-.41-3-1-3-2.85 0-1.84 1.53-3 3.46-3a6.73 6.73 0 0 1 3.56 1.11l-.88 1.58a5.64 5.64 0 0 0-2.74-.92c-.86 0-1.36.4-1.36 1 0 .7 1 1 2.19 1.36 1.41.44 3 1.08 3 2.83-.02 1.99-1.6 3-3.62 3z"/><text transform="translate(78.4 128.75)" letter-spacing=".03em" font-size="12.47" font-family="Montserrat-Bold,Montserrat" font-weight="700" fill="#fff">T<tspan class="cls-7" x="8.08" y="0">OP SO</tspan><tspan x="52.22" y="0" letter-spacing=".04em">F</tspan><tspan x="60.75" y="0">T</tspan><tspan x="68.79" y="0" letter-spacing="0">W</tspan><tspan class="cls-11" x="83.31" y="0">ARE</tspan><tspan class="cls-7"><tspan x="-35.04" y="15.75">D</tspan><tspan x="-24.24" y="15.75">E</tspan><tspan x="-15.5" y="15.75" letter-spacing=".02em">V</tspan><tspan class="cls-11" x="-5.89" y="15.75">E</tspan><tspan x="2.97" y="15.75">L</tspan><tspan x="10.85" y="15.75">O</tspan><tspan x="21.87" y="15.75">P</tspan><tspan class="cls-11" x="31.37" y="15.75">MENT </tspan><tspan x="75.44" y="15.75" letter-spacing=".02em">C</tspan><tspan x="84.89" y="15.75">OM</tspan><tspan x="108.31" y="15.75" letter-spacing="-.01em">P</tspan><tspan class="cls-11" x="117.37" y="15.75">ANY</tspan></tspan></text><text transform="translate(97.92 182.03)" font-size="10.5" font-family="Montserrat-Medium,Montserrat" font-weight="500" letter-spacing=".04em" fill="#fff">goo<tspan x="21.83" y="0" letter-spacing=".05em">d</tspan><tspan x="29.55" y="0">fi</tspan><tspan x="37.44" y="0" letter-spacing=".03em">r</tspan><tspan x="42.09" y="0">ms</tspan><tspan x="59.29" y="0" letter-spacing=".03em">.</tspan><tspan x="61.97" y="0" letter-spacing=".03em">c</tspan><tspan x="68.3" y="0">o</tspan></text></g></g></svg>