<svg xmlns="http://www.w3.org/2000/svg" viewBox="0 0 328.19 328.19"><defs><style>.cls-4{letter-spacing:-.01em}.cls-5{fill:#294dd2}.cls-10{letter-spacing:-.01em}</style></defs><g id="Layer_2" data-name="Layer 2"><g id="main_-_case_study_2_copy" data-name="main - case study 2 copy"><circle cx="164.09" cy="164.09" r="164.09"/><path d="M164.09 0a164.1 164.1 0 1 0 164.1 164.09A164.1 164.1 0 0 0 164.09 0zm0 316.7A152.61 152.61 0 1 1 316.7 164.09 152.61 152.61 0 0 1 164.09 316.7z" fill="#2e51ff"/><circle cx="164.09" cy="164.09" r="144.98" fill="none" stroke="#fff" stroke-linecap="round" stroke-linejoin="round" stroke-width="1.9" stroke-dasharray=".95 6.65"/><text transform="translate(120.24 121.05)" font-size="39.24" fill="#fff" font-family="Montserrat-Black,Montserrat" font-weight="800"><tspan class="cls-4">T</tspan><tspan x="25.27" y="0">OP</tspan><tspan class="cls-5"><tspan x="-66.72" y="40.85" letter-spacing="-.01em">S</tspan><tspan x="-41.32" y="40.85" letter-spacing="-.03em">T</tspan><tspan x="-17.03" y="40.85" letter-spacing="0">A</tspan><tspan class="cls-4" x="14.6" y="40.85">RT</tspan><tspan x="68.72" y="40.85">UPS</tspan></tspan><tspan font-size="37.71" fill="#ff00eb"><tspan class="cls-10" x="-67.77" y="81.7">T</tspan><tspan x="-43.49" y="81.7">O </tspan><tspan x="-.2" y="81.7" letter-spacing="-.04em">W</tspan><tspan x="43.76" y="81.7" letter-spacing="-.03em">A</tspan><tspan class="cls-10" x="72.83" y="81.7">T</tspan><tspan x="97.11" y="81.7">CH</tspan></tspan><tspan font-size="30.01" font-family="Montserrat-Bold,Montserrat" font-weight="700"><tspan x="-65.47" y="116.85" letter-spacing="-.01em">L</tspan><tspan x="-47.71" y="116.85">OS ANGELES</tspan></tspan></text><path class="cls-5" d="M164.09 37.97l5.03 14.68 15.51.25-12.41 9.31 4.57 14.83-12.7-8.92-12.69 8.92 4.56-14.83-12.41-9.31 15.52-.25 5.02-14.68z"/></g></g></svg>