<svg xmlns="http://www.w3.org/2000/svg" viewBox="0 0 42.39 36.71"><defs><style>.cls-1{fill:#fff;}.cls-2{fill:#a09df6;}.cls-3{fill:#2e51ff;}.cls-4{fill:#7080ff;}.cls-5{fill:#436cff;}.cls-6{fill:#6d88f8;}.cls-7{fill:#3b71ff;}</style></defs><title>Ресурс 84</title><g id="Слой_2" data-name="Слой 2"><g id="main_layout_copy" data-name="main layout copy"><polygon class="cls-1" points="21.19 36.71 0 36.71 10.6 18.35 21.19 0 31.79 18.35 42.38 36.71 21.19 36.71"/><polygon class="cls-2" points="28.26 12.24 21.19 0 21.19 12.24 28.26 12.24"/><polygon class="cls-3" points="21.19 24.47 21.19 12.24 14.13 12.24 10.6 18.35 21.19 24.47"/><polygon class="cls-4" points="21.19 0 14.13 12.24 21.19 12.24 21.19 0"/><polygon class="cls-5" points="21.19 24.47 31.79 18.35 28.26 12.24 21.19 12.24 21.19 24.47"/><polygon class="cls-5" points="28.26 36.71 42.38 36.71 31.79 30.59 28.26 36.71"/><polygon class="cls-2" points="21.19 24.47 31.79 30.59 35.32 24.47 31.79 18.35 21.19 24.47"/><polygon class="cls-6" points="21.19 24.47 21.19 36.71 28.26 36.71 31.79 30.59 21.19 24.47"/><polygon class="cls-6" points="42.38 36.71 35.32 24.47 31.79 30.59 42.38 36.71"/><polygon class="cls-4" points="21.19 24.47 10.6 18.35 7.07 24.47 10.6 30.59 21.19 24.47"/><polygon class="cls-7" points="7.07 24.47 0 36.71 10.6 30.59 7.07 24.47"/><polygon class="cls-7" points="21.19 24.47 10.6 30.59 14.13 36.71 21.19 36.71 21.19 24.47"/><polygon class="cls-3" points="0 36.71 14.13 36.71 10.6 30.59 0 36.71"/></g></g></svg>