<svg xmlns="http://www.w3.org/2000/svg" viewBox="0 0 109.72 173.35"><defs><style>.cls-1{fill:#efe6d8}.cls-1,.cls-2,.cls-3,.cls-4,.cls-5{fill-rule:evenodd}.cls-2{fill:#fff9eb}.cls-3{fill:#e2cdb0}.cls-4{fill:#ce9e6a}.cls-5{fill:#af7f4a}.cls-8{fill:#3a3530}.cls-9{fill:#1c1916}.cls-10{fill:#666}</style></defs><g id="Слой_2" data-name="Слой 2"><g id="coffee_cup" data-name="coffee cup"><path class="cls-1" d="M107.05 26.23l.92-3.87-.93 3.87-.39 2 3.06 1.54-1.71-7.41h.63l-2.69-4.9-2.55-9.69-3.17-3-10.31-2.52L70.72 0 36.23.41 20.92 2 11 5.92 7.55 8.78 6.23 19.29l-3.58 4.08.11 2.76L0 29.9l2.14 4.29 5.21 1.53 14 36.94-13.8-36.23 4.39 29.8-.51-1.53-.71 1.84 10.91 66 8.71 8.87-7.28-7.41 4.08 28 4.24 5.18 8.94 3.92 7.51 2.28 16.6-.13 13.06-3.81 7.76-6.26 1.22-4.56 3.59-23.82 1.58-2.1 9.08-66.7-.81-1.74-.31 1v-1.58l3.78-29 4.49-1.68 1.84-3.16-3.07-1.53zM9.18 11l30.52 4.51 27.76.61-28.17-.61zm47.05 67.17l-19-1.63 19.24 1.61zm15.92-1.33l-11.74 1 12.45-1.18 7.56-1.12zm19-48.37l9.59-3.47.64-.23z"/><path class="cls-2" d="M23.06 134.04l4.08 27.93 4.24 5.18 8.94 3.92-9.98-29.63-7.28-7.4z"/><path class="cls-1" d="M62.51 146.39l-22.19 24.68-9.98-29.63 14.15 5.31 18.02-.36z"/><path class="cls-3" d="M64.43 173.22l-1.92-26.83-22.19 24.68 7.51 2.28 16.6-.13z"/><path class="cls-1" d="M62.51 146.39l23.96 12.2-1.22 4.56-7.76 6.26-13.06 3.81-1.92-26.83z"/><path class="cls-2" d="M90.08 134.64l-3.61 23.95-23.96-12.2 14.85-2.97 9.72-4.7 3-4.08z"/><path class="cls-4" d="M10.71 66.54l10.93 66.02 8.7 8.88 6.6-63.37-16.12-3.88-10.11-7.65z"/><path class="cls-5" d="M62.51 146.39L36.94 78.07l-6.6 63.37 14.15 5.31 18.02-.36z"/><path fill="#966539" fill-rule="evenodd" d="M72.36 78.17L56.23 79.6l-19.29-1.53 25.57 68.32 9.85-68.22z"/><path class="cls-5" d="M72.36 78.17l-9.85 68.22 14.85-2.97 9.72-4.7 4.56-6.05-19.28-54.5z"/><path class="cls-4" d="M72.36 78.17l19.28 54.5 9.08-66.64-4.08 5.61-15.92 5.1-8.36 1.43z"/><path fill="#704521" fill-rule="evenodd" d="M11.43 64.7l-.72 1.84 10.11 7.65 16.12 3.88 19.29 1.53 16.13-1.43 8.36-1.43 15.92-5.1 4.08-5.61-.81-1.74-.31 1.02-3.47 5.21-15.71 5-8.27 1.32-15.92 1.33-18.98-1.63-15.92-3.88-9.39-6.43-.51-1.53z"/><path class="cls-2" d="M11.94 66.23l-4.39-29.8 13.78 36.23-9.39-6.43z"/><path class="cls-1" d="M21.33 72.66l16.53-31.13-16.63-1.42-13.88-4.39 13.98 36.94z"/><path class="cls-2" d="M21.33 72.66l15.92 3.88.61-35.01-16.53 31.13z"/><path class="cls-1" d="M37.25 76.54l19.49 1.63 16.12-1.53-35-35.11-.61 35.01z"/><path class="cls-3" d="M72.86 76.64l.21-35.11-15.31.82-19.9-.82 35 35.11z"/><path class="cls-1" d="M72.86 76.64l30.52-41.94-10.82 4.18-19.49 2.65-.21 35.11z"/><path class="cls-2" d="M72.86 76.64l7.56-1.12 15.71-5 3.47-5.21v-1.63l3.78-28.98-30.52 41.94z"/><path class="cls-8" d="M3.06 31.43l4.29 4.29 13.88 4.39 16.63 1.42 1.74-5.1-17.66-1.53-15.92-5.1-2.96 1.63z"/><path class="cls-9" d="M37.86 41.53l19.9.82 15.31-.82v-5.51l-15.41.41H39.6l-1.74 5.1z"/><path class="cls-8" d="M73.07 41.53l19.49-2.65 10.82-4.18.2-4.7-11.53 3.47-18.98 2.55v5.51z"/><path class="cls-9" d="M103.38 34.7l4.49-1.74 1.83-3.16-3.06-1.53-3.06 1.73-.2 4.7zM7.35 35.72l-5.21-1.53L0 29.9l2.75-3.77 3.27 3.67-2.96 1.63 4.29 4.29z"/><path class="cls-10" d="M2.65 23.37l5.11 5.2 10.3-.51-10.2-5.2-1.64-3.57-3.57 4.08z"/><path class="cls-8" d="M7.76 28.57l14.38 4.39 17.35 1.84-.1-3.88-21.33-2.86-10.3.51z"/><path class="cls-9" d="M39.49 34.8l32.76-.31-.51-4.08-32.35.51.1 3.88z"/><path class="cls-8" d="M72.25 34.49l19.8-2.55 11.43-3.47 3.57-2.24.92-3.88-5.1 1.84-11.74 4.28-19.39 1.94.51 4.08z"/><path class="cls-10" d="M107.98 22.36l1.74 7.45-3.06-1.54.39-2.04.93-3.87z"/><path class="cls-1" d="M2.65 23.37l.1 2.76 3.27 3.67 15.92 5.1 17.66 1.53h18.06l15.41-.41 18.98-2.55L103.58 30l3.06-1.73.41-2.04-3.57 2.24-11.43 3.47-19.8 2.55-32.76.31-17.35-1.84-14.38-4.39-5.11-5.2z"/><path class="cls-10" d="M6.22 19.29L7.55 8.78l1.64 2.24-1.33 11.84-1.64-3.57z"/><path class="cls-9" d="M9.19 11.02L7.86 22.86l10.2 5.2-8.87-17.04z"/><path class="cls-8" d="M9.19 11.02l8.87 17.04 21.23-12.55-30.1-4.49z"/><path class="cls-10" d="M18.06 28.06l21.33 2.86-.1-15.41-21.23 12.55z"/><path class="cls-8" d="M39.39 30.92l28.07-14.8-28.17-.61.1 15.41z"/><path class="cls-9" d="M39.39 30.92l32.35-.51-4.28-14.29-28.07 14.8z"/><path class="cls-8" d="M71.74 30.41L84.19 14.8l-16.73 1.32 4.28 14.29z"/><path class="cls-10" d="M71.74 30.41l19.39-1.94-6.94-13.67-12.45 15.61z"/><path class="cls-8" d="M91.13 28.47l9.61-3.51-1.95-13.84-14.6 3.68 6.94 13.67z"/><path class="cls-9" d="M100.74 24.96l7.23-2.61-4.39.1-.92-11.63.72-3.06-4.59 3.36 1.95 13.84z"/><path class="cls-10" d="M103.38 7.76l-.72 3.06.92 11.63 5.04-.1-2.69-4.9-2.55-9.69z"/><path class="cls-10" d="M7.55 8.78l1.64 2.24 30.51 4.49 27.76.61 16.73-1.32 14.6-3.68 4.59-3.36-3.16-2.96-10.31-2.55L70.72 0 36.23.41 20.92 2.04l-9.9 3.88-3.47 2.86z"/><path class="cls-8" d="M15.51 7.86l2.86 2.55 20.51 3.06 28.68.31 16.53-1.53 5.92-2.04 3.67-2.66-1.83-2.45-9.7-2.65-12.45-.51-34.7.41-16.53 3.06-2.96 2.45z"/><path class="cls-9" d="M18.37 10.41l.51-2.65L35.41 4.8l21.13-1.02L81.64 5l8.68 1.94-.31 3.27 3.67-2.66-1.83-2.45-9.7-2.65-12.45-.51-34.7.41-16.53 3.06-2.96 2.45 2.86 2.55z"/></g></g></svg>