<svg xmlns="http://www.w3.org/2000/svg" xmlns:xlink="http://www.w3.org/1999/xlink" viewBox="0 0 161.7 320.7"><path d="M15.1.5h131.3c8.4 0 15.1 6.8 15.1 15.1V305c0 8.4-6.8 15.1-15.1 15.1H15.1C6.7 320.1 0 313.3 0 305V15.6C0 7.3 6.8.5 15.1.5z" fill="#294dd2"/><defs><path id="a" d="M15.1.5h131.3c8.4 0 15.1 6.8 15.1 15.1V305c0 8.4-6.8 15.1-15.1 15.1H15.1C6.7 320.1 0 313.3 0 305V15.6C0 7.3 6.8.5 15.1.5z"/></defs><clipPath id="b"><use xlink:href="#a" overflow="visible"/></clipPath><g clip-path="url(#b)"><linearGradient id="c" gradientUnits="userSpaceOnUse" x1="-.15" y1="-488.31" x2="45.97" y2="-488.31" gradientTransform="translate(0 788.41)"><stop offset="0" stop-color="#4741ff"/><stop offset=".26" stop-color="#4049ff"/><stop offset=".66" stop-color="#2c60ff"/><stop offset="1" stop-color="#1778ff"/></linearGradient><path fill="url(#c)" d="M22.9 320.1l11.5-20 11.6-20H-.1l11.5 20z"/><linearGradient id="d" gradientUnits="userSpaceOnUse" x1="46.11" y1="-488.31" x2="92.23" y2="-488.31" gradientTransform="translate(0 788.41)"><stop offset="0" stop-color="#4741ff"/><stop offset=".26" stop-color="#4049ff"/><stop offset=".66" stop-color="#2c60ff"/><stop offset="1" stop-color="#1778ff"/></linearGradient><path fill="url(#d)" d="M69.2 320.1l11.5-20 11.5-20H46.1l11.5 20z"/><linearGradient id="e" gradientUnits="userSpaceOnUse" x1="92.36" y1="-488.31" x2="138.49" y2="-488.31" gradientTransform="translate(0 788.41)"><stop offset="0" stop-color="#4741ff"/><stop offset=".26" stop-color="#4049ff"/><stop offset=".66" stop-color="#2c60ff"/><stop offset="1" stop-color="#1778ff"/></linearGradient><path fill="url(#e)" d="M115.4 320.1l11.6-20 11.5-20H92.4l11.5 20z"/><linearGradient id="f" gradientUnits="userSpaceOnUse" x1="138.62" y1="-488.31" x2="184.74" y2="-488.31" gradientTransform="translate(0 788.41)"><stop offset="0" stop-color="#4741ff"/><stop offset=".26" stop-color="#4049ff"/><stop offset=".66" stop-color="#2c60ff"/><stop offset="1" stop-color="#1778ff"/></linearGradient><path fill="url(#f)" d="M161.7 320.1l11.5-20 11.5-20h-46.1l11.6 20z"/><linearGradient id="g" gradientUnits="userSpaceOnUse" x1="-.15" y1="-528.29" x2="45.97" y2="-528.29" gradientTransform="translate(0 788.41)"><stop offset="0" stop-color="#4741ff"/><stop offset=".26" stop-color="#4049ff"/><stop offset=".66" stop-color="#2c60ff"/><stop offset="1" stop-color="#1778ff"/></linearGradient><path fill="url(#g)" d="M22.9 280.1l11.5-20 11.6-20H-.1l11.5 20z"/><linearGradient id="h" gradientUnits="userSpaceOnUse" x1="46.11" y1="-528.29" x2="92.23" y2="-528.29" gradientTransform="translate(0 788.41)"><stop offset="0" stop-color="#4741ff"/><stop offset=".26" stop-color="#4049ff"/><stop offset=".66" stop-color="#2c60ff"/><stop offset="1" stop-color="#1778ff"/></linearGradient><path fill="url(#h)" d="M69.2 280.1l11.5-20 11.5-20H46.1l11.5 20z"/><linearGradient id="i" gradientUnits="userSpaceOnUse" x1="92.36" y1="-528.29" x2="138.49" y2="-528.29" gradientTransform="translate(0 788.41)"><stop offset="0" stop-color="#4741ff"/><stop offset=".26" stop-color="#4049ff"/><stop offset=".66" stop-color="#2c60ff"/><stop offset="1" stop-color="#1778ff"/></linearGradient><path fill="url(#i)" d="M115.4 280.1l11.6-20 11.5-20H92.4l11.5 20z"/><linearGradient id="j" gradientUnits="userSpaceOnUse" x1="138.62" y1="-528.29" x2="184.74" y2="-528.29" gradientTransform="translate(0 788.41)"><stop offset="0" stop-color="#4741ff"/><stop offset=".26" stop-color="#4049ff"/><stop offset=".66" stop-color="#2c60ff"/><stop offset="1" stop-color="#1778ff"/></linearGradient><path fill="url(#j)" d="M161.7 280.1l11.5-20 11.5-20h-46.1l11.6 20z"/><linearGradient id="k" gradientUnits="userSpaceOnUse" x1="-.15" y1="-568.275" x2="45.97" y2="-568.275" gradientTransform="translate(0 788.41)"><stop offset="0" stop-color="#4741ff"/><stop offset=".26" stop-color="#4049ff"/><stop offset=".66" stop-color="#2c60ff"/><stop offset="1" stop-color="#1778ff"/></linearGradient><path fill="url(#k)" d="M22.9 240.1l11.5-20L46 200.2H-.1l11.5 19.9z"/><linearGradient id="l" gradientUnits="userSpaceOnUse" x1="46.11" y1="-568.275" x2="92.23" y2="-568.275" gradientTransform="translate(0 788.41)"><stop offset="0" stop-color="#4741ff"/><stop offset=".26" stop-color="#4049ff"/><stop offset=".66" stop-color="#2c60ff"/><stop offset="1" stop-color="#1778ff"/></linearGradient><path fill="url(#l)" d="M69.2 240.1l11.5-20 11.5-19.9H46.1l11.5 19.9z"/><linearGradient id="m" gradientUnits="userSpaceOnUse" x1="92.36" y1="-568.275" x2="138.49" y2="-568.275" gradientTransform="translate(0 788.41)"><stop offset="0" stop-color="#4741ff"/><stop offset=".26" stop-color="#4049ff"/><stop offset=".66" stop-color="#2c60ff"/><stop offset="1" stop-color="#1778ff"/></linearGradient><path fill="url(#m)" d="M115.4 240.1l11.6-20 11.5-19.9H92.4l11.5 19.9z"/><linearGradient id="n" gradientUnits="userSpaceOnUse" x1="138.62" y1="-568.275" x2="184.74" y2="-568.275" gradientTransform="translate(0 788.41)"><stop offset="0" stop-color="#4741ff"/><stop offset=".26" stop-color="#4049ff"/><stop offset=".66" stop-color="#2c60ff"/><stop offset="1" stop-color="#1778ff"/></linearGradient><path fill="url(#n)" d="M161.7 240.1l11.5-20 11.5-19.9h-46.1l11.6 19.9z"/><linearGradient id="o" gradientUnits="userSpaceOnUse" x1="-.15" y1="-608.255" x2="45.97" y2="-608.255" gradientTransform="translate(0 788.41)"><stop offset="0" stop-color="#4741ff"/><stop offset=".26" stop-color="#4049ff"/><stop offset=".66" stop-color="#2c60ff"/><stop offset="1" stop-color="#1778ff"/></linearGradient><path fill="url(#o)" d="M22.9 200.1l11.5-19.9 11.6-20H-.1l11.5 20z"/><linearGradient id="p" gradientUnits="userSpaceOnUse" x1="46.11" y1="-608.255" x2="92.23" y2="-608.255" gradientTransform="translate(0 788.41)"><stop offset="0" stop-color="#4741ff"/><stop offset=".26" stop-color="#4049ff"/><stop offset=".66" stop-color="#2c60ff"/><stop offset="1" stop-color="#1778ff"/></linearGradient><path fill="url(#p)" d="M69.2 200.1l11.5-19.9 11.5-20H46.1l11.5 20z"/><linearGradient id="q" gradientUnits="userSpaceOnUse" x1="92.36" y1="-608.255" x2="138.49" y2="-608.255" gradientTransform="translate(0 788.41)"><stop offset="0" stop-color="#4741ff"/><stop offset=".26" stop-color="#4049ff"/><stop offset=".66" stop-color="#2c60ff"/><stop offset="1" stop-color="#1778ff"/></linearGradient><path fill="url(#q)" d="M115.4 200.1l11.6-19.9 11.5-20H92.4l11.5 20z"/><linearGradient id="r" gradientUnits="userSpaceOnUse" x1="138.62" y1="-608.255" x2="184.74" y2="-608.255" gradientTransform="translate(0 788.41)"><stop offset="0" stop-color="#4741ff"/><stop offset=".26" stop-color="#4049ff"/><stop offset=".66" stop-color="#2c60ff"/><stop offset="1" stop-color="#1778ff"/></linearGradient><path fill="url(#r)" d="M161.7 200.1l11.5-19.9 11.5-20h-46.1l11.6 20z"/><linearGradient id="s" gradientUnits="userSpaceOnUse" x1="-.15" y1="-648.235" x2="45.97" y2="-648.235" gradientTransform="translate(0 788.41)"><stop offset="0" stop-color="#4741ff"/><stop offset=".26" stop-color="#4049ff"/><stop offset=".66" stop-color="#2c60ff"/><stop offset="1" stop-color="#1778ff"/></linearGradient><path fill="url(#s)" d="M22.9 160.1l11.5-19.9 11.6-20H-.1l11.5 20z"/><linearGradient id="t" gradientUnits="userSpaceOnUse" x1="46.11" y1="-648.235" x2="92.23" y2="-648.235" gradientTransform="translate(0 788.41)"><stop offset="0" stop-color="#4741ff"/><stop offset=".26" stop-color="#4049ff"/><stop offset=".66" stop-color="#2c60ff"/><stop offset="1" stop-color="#1778ff"/></linearGradient><path fill="url(#t)" d="M69.2 160.1l11.5-19.9 11.5-20H46.1l11.5 20z"/><linearGradient id="u" gradientUnits="userSpaceOnUse" x1="92.36" y1="-648.235" x2="138.49" y2="-648.235" gradientTransform="translate(0 788.41)"><stop offset="0" stop-color="#4741ff"/><stop offset=".26" stop-color="#4049ff"/><stop offset=".66" stop-color="#2c60ff"/><stop offset="1" stop-color="#1778ff"/></linearGradient><path fill="url(#u)" d="M115.4 160.1l11.6-19.9 11.5-20H92.4l11.5 20z"/><linearGradient id="v" gradientUnits="userSpaceOnUse" x1="138.62" y1="-648.235" x2="184.74" y2="-648.235" gradientTransform="translate(0 788.41)"><stop offset="0" stop-color="#4741ff"/><stop offset=".26" stop-color="#4049ff"/><stop offset=".66" stop-color="#2c60ff"/><stop offset="1" stop-color="#1778ff"/></linearGradient><path fill="url(#v)" d="M161.7 160.1l11.5-19.9 11.5-20h-46.1l11.6 20z"/><linearGradient id="w" gradientUnits="userSpaceOnUse" x1="-.15" y1="-688.215" x2="45.97" y2="-688.215" gradientTransform="translate(0 788.41)"><stop offset="0" stop-color="#4741ff"/><stop offset=".26" stop-color="#4049ff"/><stop offset=".66" stop-color="#2c60ff"/><stop offset="1" stop-color="#1778ff"/></linearGradient><path fill="url(#w)" d="M22.9 120.2l11.5-20 11.6-20H-.1l11.5 20z"/><linearGradient id="x" gradientUnits="userSpaceOnUse" x1="46.11" y1="-688.215" x2="92.23" y2="-688.215" gradientTransform="translate(0 788.41)"><stop offset="0" stop-color="#4741ff"/><stop offset=".26" stop-color="#4049ff"/><stop offset=".66" stop-color="#2c60ff"/><stop offset="1" stop-color="#1778ff"/></linearGradient><path fill="url(#x)" d="M69.2 120.2l11.5-20 11.5-20H46.1l11.5 20z"/><linearGradient id="y" gradientUnits="userSpaceOnUse" x1="92.36" y1="-688.215" x2="138.49" y2="-688.215" gradientTransform="translate(0 788.41)"><stop offset="0" stop-color="#4741ff"/><stop offset=".26" stop-color="#4049ff"/><stop offset=".66" stop-color="#2c60ff"/><stop offset="1" stop-color="#1778ff"/></linearGradient><path fill="url(#y)" d="M115.4 120.2l11.6-20 11.5-20H92.4l11.5 20z"/><linearGradient id="z" gradientUnits="userSpaceOnUse" x1="138.62" y1="-688.215" x2="184.74" y2="-688.215" gradientTransform="translate(0 788.41)"><stop offset="0" stop-color="#4741ff"/><stop offset=".26" stop-color="#4049ff"/><stop offset=".66" stop-color="#2c60ff"/><stop offset="1" stop-color="#1778ff"/></linearGradient><path fill="url(#z)" d="M161.7 120.2l11.5-20 11.5-20h-46.1l11.6 20z"/><linearGradient id="A" gradientUnits="userSpaceOnUse" x1="-.15" y1="-728.195" x2="45.97" y2="-728.195" gradientTransform="translate(0 788.41)"><stop offset="0" stop-color="#4741ff"/><stop offset=".26" stop-color="#4049ff"/><stop offset=".66" stop-color="#2c60ff"/><stop offset="1" stop-color="#1778ff"/></linearGradient><path fill="url(#A)" d="M22.9 80.2l11.5-20 11.6-20H-.1l11.5 20z"/><linearGradient id="B" gradientUnits="userSpaceOnUse" x1="46.11" y1="-728.195" x2="92.23" y2="-728.195" gradientTransform="translate(0 788.41)"><stop offset="0" stop-color="#4741ff"/><stop offset=".26" stop-color="#4049ff"/><stop offset=".66" stop-color="#2c60ff"/><stop offset="1" stop-color="#1778ff"/></linearGradient><path fill="url(#B)" d="M69.2 80.2l11.5-20 11.5-20H46.1l11.5 20z"/><linearGradient id="C" gradientUnits="userSpaceOnUse" x1="92.36" y1="-728.195" x2="138.49" y2="-728.195" gradientTransform="translate(0 788.41)"><stop offset="0" stop-color="#4741ff"/><stop offset=".26" stop-color="#4049ff"/><stop offset=".66" stop-color="#2c60ff"/><stop offset="1" stop-color="#1778ff"/></linearGradient><path fill="url(#C)" d="M115.4 80.2l11.6-20 11.5-20H92.4l11.5 20z"/><linearGradient id="D" gradientUnits="userSpaceOnUse" x1="138.62" y1="-728.195" x2="184.74" y2="-728.195" gradientTransform="translate(0 788.41)"><stop offset="0" stop-color="#4741ff"/><stop offset=".26" stop-color="#4049ff"/><stop offset=".66" stop-color="#2c60ff"/><stop offset="1" stop-color="#1778ff"/></linearGradient><path fill="url(#D)" d="M161.7 80.2l11.5-20 11.5-20h-46.1l11.6 20z"/><linearGradient id="E" gradientUnits="userSpaceOnUse" x1="-.15" y1="-768.18" x2="45.97" y2="-768.18" gradientTransform="translate(0 788.41)"><stop offset="0" stop-color="#4741ff"/><stop offset=".26" stop-color="#4049ff"/><stop offset=".66" stop-color="#2c60ff"/><stop offset="1" stop-color="#1778ff"/></linearGradient><path fill="url(#E)" d="M22.9 40.2l11.5-20L46 .3H-.1l11.5 19.9z"/><linearGradient id="F" gradientUnits="userSpaceOnUse" x1="46.11" y1="-768.18" x2="92.23" y2="-768.18" gradientTransform="translate(0 788.41)"><stop offset="0" stop-color="#4741ff"/><stop offset=".26" stop-color="#4049ff"/><stop offset=".66" stop-color="#2c60ff"/><stop offset="1" stop-color="#1778ff"/></linearGradient><path fill="url(#F)" d="M69.2 40.2l11.5-20L92.2.3H46.1l11.5 19.9z"/><linearGradient id="G" gradientUnits="userSpaceOnUse" x1="92.36" y1="-768.18" x2="138.49" y2="-768.18" gradientTransform="translate(0 788.41)"><stop offset="0" stop-color="#4741ff"/><stop offset=".26" stop-color="#4049ff"/><stop offset=".66" stop-color="#2c60ff"/><stop offset="1" stop-color="#1778ff"/></linearGradient><path fill="url(#G)" d="M115.4 40.2l11.6-20L138.5.3H92.4l11.5 19.9z"/><linearGradient id="H" gradientUnits="userSpaceOnUse" x1="138.62" y1="-768.18" x2="184.74" y2="-768.18" gradientTransform="translate(0 788.41)"><stop offset="0" stop-color="#4741ff"/><stop offset=".26" stop-color="#4049ff"/><stop offset=".66" stop-color="#2c60ff"/><stop offset="1" stop-color="#1778ff"/></linearGradient><path fill="url(#H)" d="M161.7 40.2l11.5-20L184.7.3h-46.1l11.6 19.9z"/><linearGradient id="I" gradientUnits="userSpaceOnUse" x1="-23.23" y1="301.77" x2="22.89" y2="301.77" gradientTransform="matrix(1 0 0 -1 0 322)"><stop offset="0" stop-color="#4741ff"/><stop offset=".26" stop-color="#4049ff"/><stop offset=".66" stop-color="#2c60ff"/><stop offset="1" stop-color="#1778ff"/></linearGradient><path fill="url(#I)" d="M-.2.3l11.6 19.9 11.5 20h-46.1l11.5-20z"/><linearGradient id="J" gradientUnits="userSpaceOnUse" x1="23.03" y1="301.77" x2="69.15" y2="301.77" gradientTransform="matrix(1 0 0 -1 0 322)"><stop offset="0" stop-color="#4741ff"/><stop offset=".26" stop-color="#4049ff"/><stop offset=".66" stop-color="#2c60ff"/><stop offset="1" stop-color="#1778ff"/></linearGradient><path fill="url(#J)" d="M46.1.3l11.5 19.9 11.5 20H23l11.6-20z"/><linearGradient id="K" gradientUnits="userSpaceOnUse" x1="69.28" y1="301.77" x2="115.4" y2="301.77" gradientTransform="matrix(1 0 0 -1 0 322)"><stop offset="0" stop-color="#4741ff"/><stop offset=".26" stop-color="#4049ff"/><stop offset=".66" stop-color="#2c60ff"/><stop offset="1" stop-color="#1778ff"/></linearGradient><path fill="url(#K)" d="M92.3.3l11.6 19.9 11.5 20H69.3l11.5-20z"/><linearGradient id="L" gradientUnits="userSpaceOnUse" x1="115.54" y1="301.77" x2="161.66" y2="301.77" gradientTransform="matrix(1 0 0 -1 0 322)"><stop offset="0" stop-color="#4741ff"/><stop offset=".26" stop-color="#4049ff"/><stop offset=".66" stop-color="#2c60ff"/><stop offset="1" stop-color="#1778ff"/></linearGradient><path fill="url(#L)" d="M138.6.3l11.5 19.9 11.6 20h-46.2l11.6-20z"/><linearGradient id="M" gradientUnits="userSpaceOnUse" x1="-23.23" y1="261.785" x2="22.89" y2="261.785" gradientTransform="matrix(1 0 0 -1 0 322)"><stop offset="0" stop-color="#4741ff"/><stop offset=".26" stop-color="#4049ff"/><stop offset=".66" stop-color="#2c60ff"/><stop offset="1" stop-color="#1778ff"/></linearGradient><path fill="url(#M)" d="M-.2 40.2l11.6 20 11.5 20h-46.1l11.5-20z"/><linearGradient id="N" gradientUnits="userSpaceOnUse" x1="23.03" y1="261.785" x2="69.15" y2="261.785" gradientTransform="matrix(1 0 0 -1 0 322)"><stop offset="0" stop-color="#4741ff"/><stop offset=".26" stop-color="#4049ff"/><stop offset=".66" stop-color="#2c60ff"/><stop offset="1" stop-color="#1778ff"/></linearGradient><path fill="url(#N)" d="M46.1 40.2l11.5 20 11.5 20H23l11.6-20z"/><linearGradient id="O" gradientUnits="userSpaceOnUse" x1="69.28" y1="261.785" x2="115.4" y2="261.785" gradientTransform="matrix(1 0 0 -1 0 322)"><stop offset="0" stop-color="#4741ff"/><stop offset=".26" stop-color="#4049ff"/><stop offset=".66" stop-color="#2c60ff"/><stop offset="1" stop-color="#1778ff"/></linearGradient><path fill="url(#O)" d="M92.3 40.2l11.6 20 11.5 20H69.3l11.5-20z"/><linearGradient id="P" gradientUnits="userSpaceOnUse" x1="115.54" y1="261.785" x2="161.66" y2="261.785" gradientTransform="matrix(1 0 0 -1 0 322)"><stop offset="0" stop-color="#4741ff"/><stop offset=".26" stop-color="#4049ff"/><stop offset=".66" stop-color="#2c60ff"/><stop offset="1" stop-color="#1778ff"/></linearGradient><path fill="url(#P)" d="M138.6 40.2l11.5 20 11.6 20h-46.2l11.6-20z"/><linearGradient id="Q" gradientUnits="userSpaceOnUse" x1="-23.23" y1="221.805" x2="22.89" y2="221.805" gradientTransform="matrix(1 0 0 -1 0 322)"><stop offset="0" stop-color="#4741ff"/><stop offset=".26" stop-color="#4049ff"/><stop offset=".66" stop-color="#2c60ff"/><stop offset="1" stop-color="#1778ff"/></linearGradient><path fill="url(#Q)" d="M-.2 80.2l11.6 20 11.5 20h-46.1l11.5-20z"/><linearGradient id="R" gradientUnits="userSpaceOnUse" x1="23.03" y1="221.805" x2="69.15" y2="221.805" gradientTransform="matrix(1 0 0 -1 0 322)"><stop offset="0" stop-color="#4741ff"/><stop offset=".26" stop-color="#4049ff"/><stop offset=".66" stop-color="#2c60ff"/><stop offset="1" stop-color="#1778ff"/></linearGradient><path fill="url(#R)" d="M46.1 80.2l11.5 20 11.5 20H23l11.6-20z"/><linearGradient id="S" gradientUnits="userSpaceOnUse" x1="69.28" y1="221.805" x2="115.4" y2="221.805" gradientTransform="matrix(1 0 0 -1 0 322)"><stop offset="0" stop-color="#4741ff"/><stop offset=".26" stop-color="#4049ff"/><stop offset=".66" stop-color="#2c60ff"/><stop offset="1" stop-color="#1778ff"/></linearGradient><path fill="url(#S)" d="M92.3 80.2l11.6 20 11.5 20H69.3l11.5-20z"/><linearGradient id="T" gradientUnits="userSpaceOnUse" x1="115.54" y1="221.805" x2="161.66" y2="221.805" gradientTransform="matrix(1 0 0 -1 0 322)"><stop offset="0" stop-color="#4741ff"/><stop offset=".26" stop-color="#4049ff"/><stop offset=".66" stop-color="#2c60ff"/><stop offset="1" stop-color="#1778ff"/></linearGradient><path fill="url(#T)" d="M138.6 80.2l11.5 20 11.6 20h-46.2l11.6-20z"/><linearGradient id="U" gradientUnits="userSpaceOnUse" x1="-23.23" y1="181.825" x2="22.89" y2="181.825" gradientTransform="matrix(1 0 0 -1 0 322)"><stop offset="0" stop-color="#4741ff"/><stop offset=".26" stop-color="#4049ff"/><stop offset=".66" stop-color="#2c60ff"/><stop offset="1" stop-color="#1778ff"/></linearGradient><path fill="url(#U)" d="M-.2 120.2l11.6 20 11.5 19.9h-46.1l11.5-19.9z"/><linearGradient id="V" gradientUnits="userSpaceOnUse" x1="23.03" y1="181.825" x2="69.15" y2="181.825" gradientTransform="matrix(1 0 0 -1 0 322)"><stop offset="0" stop-color="#4741ff"/><stop offset=".26" stop-color="#4049ff"/><stop offset=".66" stop-color="#2c60ff"/><stop offset="1" stop-color="#1778ff"/></linearGradient><path fill="url(#V)" d="M46.1 120.2l11.5 20 11.5 19.9H23l11.6-19.9z"/><linearGradient id="W" gradientUnits="userSpaceOnUse" x1="69.28" y1="181.825" x2="115.4" y2="181.825" gradientTransform="matrix(1 0 0 -1 0 322)"><stop offset="0" stop-color="#4741ff"/><stop offset=".26" stop-color="#4049ff"/><stop offset=".66" stop-color="#2c60ff"/><stop offset="1" stop-color="#1778ff"/></linearGradient><path fill="url(#W)" d="M92.3 120.2l11.6 20 11.5 19.9H69.3l11.5-19.9z"/><linearGradient id="X" gradientUnits="userSpaceOnUse" x1="115.54" y1="181.825" x2="161.66" y2="181.825" gradientTransform="matrix(1 0 0 -1 0 322)"><stop offset="0" stop-color="#4741ff"/><stop offset=".26" stop-color="#4049ff"/><stop offset=".66" stop-color="#2c60ff"/><stop offset="1" stop-color="#1778ff"/></linearGradient><path fill="url(#X)" d="M138.6 120.2l11.5 20 11.6 19.9h-46.2l11.6-19.9z"/><linearGradient id="Y" gradientUnits="userSpaceOnUse" x1="-23.23" y1="141.845" x2="22.89" y2="141.845" gradientTransform="matrix(1 0 0 -1 0 322)"><stop offset="0" stop-color="#4741ff"/><stop offset=".26" stop-color="#4049ff"/><stop offset=".66" stop-color="#2c60ff"/><stop offset="1" stop-color="#1778ff"/></linearGradient><path fill="url(#Y)" d="M-.2 160.2l11.6 20 11.5 19.9h-46.1l11.5-19.9z"/><linearGradient id="Z" gradientUnits="userSpaceOnUse" x1="23.03" y1="141.845" x2="69.15" y2="141.845" gradientTransform="matrix(1 0 0 -1 0 322)"><stop offset="0" stop-color="#4741ff"/><stop offset=".26" stop-color="#4049ff"/><stop offset=".66" stop-color="#2c60ff"/><stop offset="1" stop-color="#1778ff"/></linearGradient><path fill="url(#Z)" d="M46.1 160.2l11.5 20 11.5 19.9H23l11.6-19.9z"/><linearGradient id="aa" gradientUnits="userSpaceOnUse" x1="69.28" y1="141.845" x2="115.4" y2="141.845" gradientTransform="matrix(1 0 0 -1 0 322)"><stop offset="0" stop-color="#4741ff"/><stop offset=".26" stop-color="#4049ff"/><stop offset=".66" stop-color="#2c60ff"/><stop offset="1" stop-color="#1778ff"/></linearGradient><path fill="url(#aa)" d="M92.3 160.2l11.6 20 11.5 19.9H69.3l11.5-19.9z"/><linearGradient id="ab" gradientUnits="userSpaceOnUse" x1="115.54" y1="141.845" x2="161.66" y2="141.845" gradientTransform="matrix(1 0 0 -1 0 322)"><stop offset="0" stop-color="#4741ff"/><stop offset=".26" stop-color="#4049ff"/><stop offset=".66" stop-color="#2c60ff"/><stop offset="1" stop-color="#1778ff"/></linearGradient><path fill="url(#ab)" d="M138.6 160.2l11.5 20 11.6 19.9h-46.2l11.6-19.9z"/><linearGradient id="ac" gradientUnits="userSpaceOnUse" x1="-23.23" y1="101.865" x2="22.89" y2="101.865" gradientTransform="matrix(1 0 0 -1 0 322)"><stop offset="0" stop-color="#4741ff"/><stop offset=".26" stop-color="#4049ff"/><stop offset=".66" stop-color="#2c60ff"/><stop offset="1" stop-color="#1778ff"/></linearGradient><path fill="url(#ac)" d="M-.2 200.2l11.6 19.9 11.5 20h-46.1l11.5-20z"/><linearGradient id="ad" gradientUnits="userSpaceOnUse" x1="23.03" y1="101.865" x2="69.15" y2="101.865" gradientTransform="matrix(1 0 0 -1 0 322)"><stop offset="0" stop-color="#4741ff"/><stop offset=".26" stop-color="#4049ff"/><stop offset=".66" stop-color="#2c60ff"/><stop offset="1" stop-color="#1778ff"/></linearGradient><path fill="url(#ad)" d="M46.1 200.2l11.5 19.9 11.5 20H23l11.6-20z"/><linearGradient id="ae" gradientUnits="userSpaceOnUse" x1="69.28" y1="101.865" x2="115.4" y2="101.865" gradientTransform="matrix(1 0 0 -1 0 322)"><stop offset="0" stop-color="#4741ff"/><stop offset=".26" stop-color="#4049ff"/><stop offset=".66" stop-color="#2c60ff"/><stop offset="1" stop-color="#1778ff"/></linearGradient><path fill="url(#ae)" d="M92.3 200.2l11.6 19.9 11.5 20H69.3l11.5-20z"/><linearGradient id="af" gradientUnits="userSpaceOnUse" x1="115.54" y1="101.865" x2="161.66" y2="101.865" gradientTransform="matrix(1 0 0 -1 0 322)"><stop offset="0" stop-color="#4741ff"/><stop offset=".26" stop-color="#4049ff"/><stop offset=".66" stop-color="#2c60ff"/><stop offset="1" stop-color="#1778ff"/></linearGradient><path fill="url(#af)" d="M138.6 200.2l11.5 19.9 11.6 20h-46.2l11.6-20z"/><linearGradient id="ag" gradientUnits="userSpaceOnUse" x1="-23.23" y1="61.88" x2="22.89" y2="61.88" gradientTransform="matrix(1 0 0 -1 0 322)"><stop offset="0" stop-color="#4741ff"/><stop offset=".26" stop-color="#4049ff"/><stop offset=".66" stop-color="#2c60ff"/><stop offset="1" stop-color="#1778ff"/></linearGradient><path fill="url(#ag)" d="M-.2 240.1l11.6 20 11.5 20h-46.1l11.5-20z"/><linearGradient id="ah" gradientUnits="userSpaceOnUse" x1="23.03" y1="61.88" x2="69.15" y2="61.88" gradientTransform="matrix(1 0 0 -1 0 322)"><stop offset="0" stop-color="#4741ff"/><stop offset=".26" stop-color="#4049ff"/><stop offset=".66" stop-color="#2c60ff"/><stop offset="1" stop-color="#1778ff"/></linearGradient><path fill="url(#ah)" d="M46.1 240.1l11.5 20 11.5 20H23l11.6-20z"/><linearGradient id="ai" gradientUnits="userSpaceOnUse" x1="69.28" y1="61.88" x2="115.4" y2="61.88" gradientTransform="matrix(1 0 0 -1 0 322)"><stop offset="0" stop-color="#4741ff"/><stop offset=".26" stop-color="#4049ff"/><stop offset=".66" stop-color="#2c60ff"/><stop offset="1" stop-color="#1778ff"/></linearGradient><path fill="url(#ai)" d="M92.3 240.1l11.6 20 11.5 20H69.3l11.5-20z"/><linearGradient id="aj" gradientUnits="userSpaceOnUse" x1="115.54" y1="61.88" x2="161.66" y2="61.88" gradientTransform="matrix(1 0 0 -1 0 322)"><stop offset="0" stop-color="#4741ff"/><stop offset=".26" stop-color="#4049ff"/><stop offset=".66" stop-color="#2c60ff"/><stop offset="1" stop-color="#1778ff"/></linearGradient><path fill="url(#aj)" d="M138.6 240.1l11.5 20 11.6 20h-46.2l11.6-20z"/><linearGradient id="ak" gradientUnits="userSpaceOnUse" x1="-23.23" y1="21.9" x2="22.89" y2="21.9" gradientTransform="matrix(1 0 0 -1 0 322)"><stop offset="0" stop-color="#4741ff"/><stop offset=".26" stop-color="#4049ff"/><stop offset=".66" stop-color="#2c60ff"/><stop offset="1" stop-color="#1778ff"/></linearGradient><path fill="url(#ak)" d="M-.2 280.1l11.6 20 11.5 20h-46.1l11.5-20z"/><linearGradient id="al" gradientUnits="userSpaceOnUse" x1="23.03" y1="21.9" x2="69.15" y2="21.9" gradientTransform="matrix(1 0 0 -1 0 322)"><stop offset="0" stop-color="#4741ff"/><stop offset=".26" stop-color="#4049ff"/><stop offset=".66" stop-color="#2c60ff"/><stop offset="1" stop-color="#1778ff"/></linearGradient><path fill="url(#al)" d="M46.1 280.1l11.5 20 11.5 20H23l11.6-20z"/><linearGradient id="am" gradientUnits="userSpaceOnUse" x1="69.28" y1="21.9" x2="115.4" y2="21.9" gradientTransform="matrix(1 0 0 -1 0 322)"><stop offset="0" stop-color="#4741ff"/><stop offset=".26" stop-color="#4049ff"/><stop offset=".66" stop-color="#2c60ff"/><stop offset="1" stop-color="#1778ff"/></linearGradient><path fill="url(#am)" d="M92.3 280.1l11.6 20 11.5 20H69.3l11.5-20z"/><linearGradient id="an" gradientUnits="userSpaceOnUse" x1="115.54" y1="21.9" x2="161.66" y2="21.9" gradientTransform="matrix(1 0 0 -1 0 322)"><stop offset="0" stop-color="#4741ff"/><stop offset=".26" stop-color="#4049ff"/><stop offset=".66" stop-color="#2c60ff"/><stop offset="1" stop-color="#1778ff"/></linearGradient><path fill="url(#an)" d="M138.6 280.1l11.5 20 11.6 20h-46.2l11.6-20z"/></g><path d="M15.1.5h131.3c8.4 0 15.1 6.8 15.1 15.1V305c0 8.4-6.8 15.1-15.1 15.1H15.1C6.7 320.1 0 313.3 0 305V15.6C0 7.3 6.8.5 15.1.5z" fill="none" stroke="#294dd2" stroke-miterlimit="10"/></svg>