<svg xmlns="http://www.w3.org/2000/svg" viewBox="0 0 86.55 254.88"><defs><style>.cls-3{stroke:#294dd2;stroke-linecap:round;stroke-linejoin:round;stroke-width:.75px}</style></defs><g id="Слой_2" data-name="Слой 2"><g id="main_layout_copy" data-name="main layout copy"><circle cx="43.07" cy="31.55" r="31.05" stroke="#294dd2" fill="none" stroke-miterlimit="10"/><path d="M44.18 12.63c7.59 0 12.67 4.4 12.67 10.91a9 9 0 0 1-2.51 6.56 29.22 29.22 0 0 1-3.6 3l-1.2.86c-1.65 1.2-2.39 2.85-2.51 5.42V40H40v-.4c.12-4 .23-4.8 1.14-6.45.63-1.26 1.6-2.23 4.28-4.46 2.58-2.05 3.26-3.19 3.26-5.31 0-2.57-1.83-4.28-4.57-4.28-3.65 0-5.42 2.06-5.59 6.57H30.7c.4-8.36 5.3-13.04 13.48-13.04zm3.36 38.94h-8.27v-8.16h8.27z" fill="#294dd2"/><path class="cls-3" d="M76.27 215.16l-4.08 27.95-4.24 5.19-8.96 3.92 9.99-29.65 7.29-7.41z"/><path class="cls-3" d="M36.79 227.52l22.2 24.7 9.99-29.65-14.16 5.31-18.03-.36z"/><path class="cls-3" d="M34.87 254.37l1.92-26.85 22.2 24.7-7.51 2.28-16.61-.13z"/><path class="cls-3" d="M36.79 227.52L12.8 239.73l1.23 4.56 7.76 6.27 13.08 3.81 1.92-26.85zm-27.6-11.76l3.61 23.97 23.99-12.21-14.86-2.98-9.74-4.7-3-4.08zm76.27-70.21l.72 1.84-7.66 7.86-16.14 3.88-19.31 1.54-16.14-1.43-8.37-1.43-14.1-4.09-4.08-5.62.81-1.73.31 1.02 3.47 5.21 13.89 3.98 8.28 1.33 15.93 1.33 19-1.64 15.94-3.88 6.94-6.64.51-1.53z"/><path class="cls-3" d="M85.16 146.49l.3-.94-7.15-6.84-16.24-3.45-19.34-1.02-16.09 1.86-8.34 1.65-13.98 4.46-3.13 4.16.31 1.02.43.69 2.93-4.76 13.78-4.35 8.24-1.55 15.89-1.75 19.04 1.13 16.03 3.45 7.11 6.83.21-.59z"/><path class="cls-3" d="M78.01 153.72l-.17-13.47-15.77 17.35 15.94-3.88z"/><path class="cls-3" d="M77.84 140.25l-16.03-3.45.26 20.8 15.77-17.35z"/><path class="cls-3" d="M61.81 136.8l.26 20.8-19 1.64 18.74-22.44zm-19.04-1.13l.3 23.57 18.74-22.44-19.04-1.13z"/><path class="cls-3" d="M42.77 135.67l.3 23.57-15.93-1.33 15.63-22.24z"/><path class="cls-3" d="M42.77 135.67l-15.63 22.24-.26-20.49 15.89-1.75z"/><path class="cls-3" d="M26.88 137.42l.26 20.49-8.28-1.33 8.02-19.16z"/><path class="cls-3" d="M18.86 156.58l-.22-17.61 8.24-1.55-8.02 19.16zm-14-13.26l.11 9.28-3.04-4.52 2.93-4.76zm71.97 29.12l6.08-2.71-6.64 45.43.56-42.72zm-12.72 3.45l14.41-20.64-16.14 3.88 1.73 16.76zm12.72-3.45l1.69-17.19-14.41 20.64 12.72-3.45z"/><path class="cls-3" d="M82.91 169.73l3.27-22.34-7.66 7.86-1.69 17.19 6.08-2.71zm-20.53-10.6l-20.16 18.42 13.49-.59 8.4-1.07-1.73-16.76zm-19.31 1.54l-.85 16.88 20.16-18.42-19.31 1.54z"/><path class="cls-3" d="M43.07 160.67l-21.26 14.88 5.12-16.31 16.14 1.43zm-.85 16.88l-20.41-2 21.26-14.88-.85 16.88z"/><path class="cls-3" d="M26.93 159.24l-23.81 9.95 8.03 4.64 10.66 1.72 5.12-16.31zm27.89 68.64l-12.6-50.33-20.29 46.99 14.86 2.98 18.03.36zm9.29-51.99l-21.89 1.66 12.6 50.33 9.29-51.99z"/><path class="cls-3" d="M76.83 172.44l-12.72 3.45-9.29 51.99 14.16-5.31 7.29-7.41.56-42.72zm-65.68 1.39l10.66 1.72 20.41 2-20.29 46.99-10.78-50.71zm-8.03-4.64l6.07 46.57 3 4.08 9.74 4.7-10.78-50.71-8.03-4.64zm74.72-28.94l.17 13.47 6.94-6.64-7.11-6.83zm-59.2-1.28L4.97 152.6l-.11-9.28 13.78-4.35zm0 0l.22 17.61-13.89-3.98 13.67-13.63zM.38 148.1l2.74 21.09 1.34-15.47-4.08-5.62zm26.55 11.14l-8.37-1.43-14.1-4.09-1.34 15.47 23.81-9.95z"/></g></g></svg>