<svg xmlns="http://www.w3.org/2000/svg" viewBox="0 0 110.57 174.26"><defs><style>.cls-1{stroke:#294dd2;stroke-linecap:round;stroke-linejoin:round;stroke-width:0.75px;}</style></defs><title>Ресурс 84</title><g id="Слой_2" data-name="Слой 2"><g id="main_layout_copy" data-name="main layout copy"><polygon class="cls-1" points="23.46 134.54 27.54 162.5 31.78 167.68 40.74 171.61 30.75 141.95 23.46 134.54"/><polygon class="cls-1" points="62.94 146.9 40.74 171.61 30.75 141.95 44.91 147.26 62.94 146.9"/><polygon class="cls-1" points="64.86 173.75 62.94 146.9 40.74 171.61 48.25 173.89 64.86 173.75"/><polygon class="cls-1" points="62.94 146.9 86.93 159.11 85.7 163.67 77.94 169.94 64.86 173.75 62.94 146.9"/><polygon class="cls-1" points="90.54 135.14 86.93 159.11 62.94 146.9 77.8 143.93 87.54 139.23 90.54 135.14"/><polygon class="cls-1" points="11.1 66.97 22.03 133.06 30.75 141.95 37.35 78.52 21.21 74.64 11.1 66.97"/><polygon class="cls-1" points="62.94 146.9 37.35 78.52 30.75 141.95 44.91 147.26 62.94 146.9"/><polygon class="cls-1" points="72.8 78.62 56.66 80.05 37.35 78.52 62.94 146.9 72.8 78.62"/><polygon class="cls-1" points="72.8 78.62 62.94 146.9 77.8 143.93 87.54 139.23 92.1 133.16 72.8 78.62"/><polygon class="cls-1" points="72.8 78.62 92.1 133.16 101.19 66.46 97.11 72.08 81.17 77.19 72.8 78.62"/><polygon class="cls-1" points="11.81 65.14 11.1 66.97 21.21 74.64 37.35 78.52 56.66 80.05 72.8 78.62 81.17 77.19 97.11 72.08 101.19 66.46 100.38 64.73 100.07 65.75 96.6 70.96 80.87 75.96 72.59 77.29 56.66 78.62 37.66 76.98 21.72 73.1 12.33 66.67 11.81 65.14"/><polygon class="cls-1" points="12.33 66.67 7.93 36.84 21.72 73.1 12.33 66.67"/><polygon class="cls-1" points="21.72 73.1 38.27 41.95 21.62 40.52 7.73 36.13 21.72 73.1"/><polygon class="cls-1" points="21.72 73.1 37.66 76.98 38.27 41.95 21.72 73.1"/><polygon class="cls-1" points="37.66 76.98 57.17 78.62 73.31 77.09 38.27 41.95 37.66 76.98"/><polygon class="cls-1" points="73.31 77.09 73.51 41.95 58.19 42.77 38.27 41.95 73.31 77.09"/><polygon class="cls-1" points="73.31 77.09 103.85 35.1 93.02 39.29 73.51 41.95 73.31 77.09"/><polygon class="cls-1" points="73.31 77.09 80.87 75.96 96.6 70.96 100.07 65.75 100.07 64.11 103.85 35.1 73.31 77.09"/><polygon class="cls-1" points="3.44 31.84 7.73 36.13 21.62 40.52 38.27 41.95 40.01 36.84 22.34 35.31 6.4 30.2 3.44 31.84"/><polygon class="cls-1" points="38.27 41.95 58.19 42.77 73.51 41.95 73.51 36.43 58.09 36.84 40.01 36.84 38.27 41.95"/><polygon class="cls-1" points="73.51 41.95 93.02 39.29 103.85 35.1 104.05 30.41 92.51 33.88 73.51 36.43 73.51 41.95"/><polygon class="cls-1" points="103.85 35.1 108.34 33.37 110.18 30.2 107.12 28.67 104.05 30.41 103.85 35.1"/><polygon class="cls-1" points="7.73 36.13 2.52 34.59 0.38 30.3 3.13 26.52 6.4 30.2 3.44 31.84 7.73 36.13"/><polygon class="cls-1" points="3.03 23.77 8.14 28.98 18.45 28.46 8.24 23.26 6.61 19.68 3.03 23.77"/><polygon class="cls-1" points="8.14 28.98 22.54 33.37 39.91 35.21 39.8 31.32 18.45 28.46 8.14 28.98"/><polygon class="cls-1" points="39.91 35.21 72.69 34.9 72.18 30.82 39.8 31.32 39.91 35.21"/><polygon class="cls-1" points="72.69 34.9 92.51 32.35 103.95 28.87 107.53 26.63 108.45 22.75 103.34 24.58 91.59 28.87 72.18 30.82 72.69 34.9"/><polygon class="cls-1" points="108.46 22.75 110.2 30.21 107.13 28.68 107.53 26.63 108.46 22.75"/><polygon class="cls-1" points="3.03 23.77 3.13 26.52 6.4 30.2 22.34 35.31 40.01 36.84 58.09 36.84 73.51 36.43 92.51 33.88 104.05 30.41 107.12 28.67 107.53 26.63 103.95 28.87 92.51 32.35 72.69 34.9 39.91 35.21 22.54 33.37 8.14 28.98 3.03 23.77"/><polygon class="cls-1" points="6.61 19.68 7.93 9.16 9.57 11.41 8.24 23.26 6.61 19.68"/><polygon class="cls-1" points="9.57 11.41 8.24 23.26 18.45 28.46 9.57 11.41"/><polygon class="cls-1" points="9.57 11.41 18.45 28.46 39.7 15.9 9.57 11.41"/><polygon class="cls-1" points="18.45 28.46 39.8 31.32 39.7 15.9 18.45 28.46"/><polygon class="cls-1" points="39.8 31.32 67.89 16.51 39.7 15.9 39.8 31.32"/><polygon class="cls-1" points="39.8 31.32 72.18 30.82 67.89 16.51 39.8 31.32"/><polygon class="cls-1" points="72.18 30.82 84.65 15.19 67.89 16.51 72.18 30.82"/><polygon class="cls-1" points="72.18 30.82 91.59 28.87 84.65 15.19 72.18 30.82"/><polygon class="cls-1" points="91.59 28.87 101.21 25.36 99.25 11.51 84.65 15.19 91.59 28.87"/><polygon class="cls-1" points="101.21 25.36 108.45 22.75 104.05 22.85 103.13 11.2 103.85 8.14 99.25 11.51 101.21 25.36"/><polygon class="cls-1" points="103.85 8.14 103.13 11.2 104.05 22.85 109.09 22.75 106.4 17.84 103.85 8.14"/><polygon class="cls-1" points="7.93 9.16 9.57 11.41 40.11 15.9 67.89 16.51 84.65 15.19 99.25 11.51 103.85 8.14 100.68 5.18 90.37 2.62 71.16 0.38 36.64 0.78 21.32 2.42 11.41 6.3 7.93 9.16"/><polygon class="cls-1" points="15.9 8.24 18.76 10.79 39.29 13.86 68 14.16 84.54 12.63 90.47 10.59 94.14 7.93 92.31 5.48 82.6 2.83 70.14 2.32 35.41 2.72 18.86 5.79 15.9 8.24"/><polygon class="cls-1" points="18.76 10.79 19.27 8.14 35.82 5.18 56.96 4.15 82.09 5.38 90.77 7.32 90.47 10.59 94.14 7.93 92.31 5.48 82.6 2.83 70.14 2.32 35.41 2.72 18.86 5.79 15.9 8.24 18.76 10.79"/></g></g></svg>