<svg xmlns="http://www.w3.org/2000/svg" viewBox="0 0 85.8 254"><defs><style>.cls-1{fill:#d1d0cd}.cls-2{fill:#b000ff}.cls-3{fill:#d400ff}.cls-4{fill:#f0f}.cls-5{fill:#fff}.cls-6{fill:#bcbbbb}.cls-7{fill:#999898}.cls-8{fill:#666}.cls-9{fill:#edece8}</style></defs><g id="Слой_2" data-name="Слой 2"><g id="mystery_cup_copy" data-name="mystery cup copy"><path class="cls-1" d="M85.09 145.05l-7.15-6.84-16.24-3.45-19.34-1.02-16.1 1.86-8.33 1.65-13.98 4.46-3.13 4.16L0 147.6l2.75 21.09 6.07 46.57 3.61 23.97 1.22 4.56 7.77 6.26 13.07 3.82 16.62.13 7.51-2.28 8.95-3.92 4.24-5.19 4.09-27.95 6.63-45.43 3.27-22.34-.71-1.84z"/><path class="cls-2" d="M75.9 214.66l-4.09 27.95-4.24 5.19-8.95 3.92 9.99-29.65 7.29-7.41z"/><path class="cls-3" d="M36.41 227.02l22.21 24.7 9.99-29.65-14.17 5.31-18.03-.36z"/><path class="cls-4" d="M34.49 253.87l1.92-26.85 22.21 24.7-7.51 2.28-16.62-.13z"/><path class="cls-3" d="M36.41 227.02l-23.98 12.21 1.22 4.56 7.77 6.27 13.07 3.81 1.92-26.85z"/><path class="cls-2" d="M8.82 215.26l3.61 23.97 23.98-12.21-14.86-2.98-9.74-4.7-2.99-4.08z"/><path class="cls-5" d="M85.09 145.05l.71 1.84-7.66 7.86L62 158.63l-19.3 1.54-16.14-1.43-8.38-1.43-14.09-4.09L0 147.6l.82-1.73.3 1.02 3.48 5.21 13.89 3.98 8.27 1.33 15.94 1.33 19-1.64 15.93-3.88 6.95-6.64.51-1.53z"/><path class="cls-5" d="M84.78 145.99l.31-.94-7.15-6.84-16.24-3.45-19.34-1.02-16.1 1.86-8.33 1.65-13.98 4.46-3.13 4.16.3 1.02.44.69 2.93-4.76 13.78-4.35 8.23-1.55 15.9-1.75 19.03 1.13 16.04 3.45 7.11 6.83.2-.59z"/><path class="cls-6" d="M77.63 153.22l-.16-13.47L61.7 157.1l15.93-3.88z"/><path class="cls-7" d="M77.47 139.75l-16.04-3.45.27 20.8 15.77-17.35z"/><path class="cls-6" d="M61.43 136.3l.27 20.8-19 1.64 18.73-22.44z"/><path class="cls-7" d="M42.4 135.17l.3 23.57 18.73-22.44-19.03-1.13z"/><path class="cls-6" d="M42.4 135.17l.3 23.57-15.94-1.33 15.64-22.24z"/><path class="cls-7" d="M42.4 135.17l-15.64 22.24-.26-20.49 15.9-1.75z"/><path class="cls-6" d="M26.5 136.92l.26 20.49-8.27-1.33 8.01-19.16z"/><path class="cls-7" d="M18.49 156.08l-.22-17.61 8.23-1.55-8.01 19.16z"/><path class="cls-8" d="M4.49 142.82l.11 9.28-3.04-4.52 2.93-4.76z"/><path class="cls-2" d="M76.45 171.94l6.08-2.71-6.63 45.43.55-42.72z"/><path class="cls-1" d="M63.74 175.39l14.4-20.64L62 158.63l1.74 16.76z"/><path class="cls-9" d="M76.45 171.94l1.69-17.19-14.4 20.64 12.71-3.45z"/><path class="cls-7" d="M82.53 169.23l3.27-22.34-7.66 7.86-1.69 17.19 6.08-2.71z"/><path class="cls-9" d="M62 158.63l-20.15 18.42 13.48-.59 8.41-1.07L62 158.63z"/><path class="cls-1" d="M42.7 160.17l-.85 16.88L62 158.63l-19.3 1.54zm0 0l-21.26 14.88 5.12-16.31 16.14 1.43z"/><path class="cls-9" d="M41.85 177.05l-20.41-2 21.26-14.88-.85 16.88zm-15.29-18.31l-23.81 9.95 8.03 4.64 10.66 1.72 5.12-16.31z"/><path class="cls-4" d="M54.44 227.38l-12.59-50.33-20.3 46.99 14.86 2.98 18.03.36z"/><path class="cls-3" d="M63.74 175.39l-21.89 1.66 12.59 50.33 9.3-51.99z"/><path class="cls-4" d="M76.45 171.94l-12.71 3.45-9.3 51.99 14.17-5.31 7.29-7.41.55-42.72z"/><path class="cls-3" d="M10.78 173.33l10.66 1.72 20.41 2-20.3 46.99-10.77-50.71z"/><path class="cls-4" d="M2.75 168.69l6.07 46.57 2.99 4.08 9.74 4.7-10.77-50.71-8.03-4.64z"/><path class="cls-8" d="M77.47 139.75l.16 13.47 6.95-6.64-7.11-6.83z"/><circle class="cls-4" cx="42.7" cy="31.05" r="31.05"/><path d="M43.8 12.13c7.6 0 12.68 4.4 12.68 10.91A9 9 0 0154 29.6a29.15 29.15 0 01-3.59 3l-1.2.86c-1.66 1.2-2.4 2.85-2.51 5.42v.63h-7.12v-.4c.11-4 .22-4.8 1.14-6.45.63-1.26 1.6-2.23 4.28-4.46 2.57-2.05 3.25-3.19 3.25-5.31 0-2.57-1.82-4.28-4.56-4.28-3.66 0-5.43 2.06-5.6 6.57h-7.76c.4-8.37 5.25-13.05 13.47-13.05zm3.37 38.94h-8.28v-8.16h8.28z" fill="#294dd2"/><path class="cls-7" d="M18.27 138.47L4.6 152.1l-.11-9.28 13.78-4.35z"/><path class="cls-6" d="M18.27 138.47l.22 17.61L4.6 152.1l13.67-13.63z"/><path class="cls-9" d="M0 147.6l2.75 21.09 1.34-15.47L0 147.6z"/><path class="cls-1" d="M26.56 158.74l-8.38-1.43-14.09-4.09-1.34 15.47 23.81-9.95z"/></g></g></svg>