<svg xmlns="http://www.w3.org/2000/svg" xmlns:xlink="http://www.w3.org/1999/xlink" viewBox="0 0 207.97 320.7"><defs><clipPath id="b"><rect x="23.23" y=".5" width="161.6" height="319.7" rx="15.13" ry="15.13" fill="none"/></clipPath><linearGradient id="a" x1="23.08" y1="1280.31" x2="69.2" y2="1280.31" gradientTransform="matrix(1 0 0 -1 0 1580.41)" gradientUnits="userSpaceOnUse"><stop offset="0" stop-color="#4741ff"/><stop offset=".26" stop-color="#4049ff"/><stop offset=".66" stop-color="#2c60ff"/><stop offset="1" stop-color="#1778ff"/></linearGradient><linearGradient id="c" x1="69.34" y1="1280.31" x2="115.46" y2="1280.31" xlink:href="#a"/><linearGradient id="d" x1="115.59" y1="1280.31" x2="161.72" y2="1280.31" xlink:href="#a"/><linearGradient id="e" x1="161.85" y1="1280.31" x2="207.97" y2="1280.31" xlink:href="#a"/><linearGradient id="f" x1="23.08" y1="1320.3" x2="69.2" y2="1320.3" xlink:href="#a"/><linearGradient id="g" x1="69.34" y1="1320.3" x2="115.46" y2="1320.3" xlink:href="#a"/><linearGradient id="h" x1="115.59" y1="1320.3" x2="161.72" y2="1320.3" xlink:href="#a"/><linearGradient id="i" x1="161.85" y1="1320.3" x2="207.97" y2="1320.3" xlink:href="#a"/><linearGradient id="j" x1="23.08" y1="1360.28" x2="69.2" y2="1360.28" xlink:href="#a"/><linearGradient id="k" x1="69.34" y1="1360.28" x2="115.46" y2="1360.28" xlink:href="#a"/><linearGradient id="l" x1="115.59" y1="1360.28" x2="161.72" y2="1360.28" xlink:href="#a"/><linearGradient id="m" x1="161.85" y1="1360.28" x2="207.97" y2="1360.28" xlink:href="#a"/><linearGradient id="n" x1="23.08" y1="1400.26" x2="69.2" y2="1400.26" xlink:href="#a"/><linearGradient id="o" x1="69.34" y1="1400.26" x2="115.46" y2="1400.26" xlink:href="#a"/><linearGradient id="p" x1="115.59" y1="1400.26" x2="161.72" y2="1400.26" xlink:href="#a"/><linearGradient id="q" x1="161.85" y1="1400.26" x2="207.97" y2="1400.26" xlink:href="#a"/><linearGradient id="r" x1="23.08" y1="1440.24" x2="69.2" y2="1440.24" xlink:href="#a"/><linearGradient id="s" x1="69.34" y1="1440.24" x2="115.46" y2="1440.24" xlink:href="#a"/><linearGradient id="t" x1="115.59" y1="1440.24" x2="161.72" y2="1440.24" xlink:href="#a"/><linearGradient id="u" x1="161.85" y1="1440.24" x2="207.97" y2="1440.24" xlink:href="#a"/><linearGradient id="v" x1="23.08" y1="1480.22" x2="69.2" y2="1480.22" xlink:href="#a"/><linearGradient id="w" x1="69.34" y1="1480.22" x2="115.46" y2="1480.22" xlink:href="#a"/><linearGradient id="x" x1="115.59" y1="1480.22" x2="161.72" y2="1480.22" xlink:href="#a"/><linearGradient id="y" x1="161.85" y1="1480.22" x2="207.97" y2="1480.22" xlink:href="#a"/><linearGradient id="z" x1="23.08" y1="1520.2" x2="69.2" y2="1520.2" xlink:href="#a"/><linearGradient id="A" x1="69.34" y1="1520.2" x2="115.46" y2="1520.2" xlink:href="#a"/><linearGradient id="B" x1="115.59" y1="1520.2" x2="161.72" y2="1520.2" xlink:href="#a"/><linearGradient id="C" x1="161.85" y1="1520.2" x2="207.97" y2="1520.2" xlink:href="#a"/><linearGradient id="D" x1="23.08" y1="1560.18" x2="69.2" y2="1560.18" xlink:href="#a"/><linearGradient id="E" x1="69.34" y1="1560.18" x2="115.46" y2="1560.18" xlink:href="#a"/><linearGradient id="F" x1="115.59" y1="1560.18" x2="161.72" y2="1560.18" xlink:href="#a"/><linearGradient id="G" x1="161.85" y1="1560.18" x2="207.97" y2="1560.18" xlink:href="#a"/><linearGradient id="H" x1="0" y1="20.23" x2="46.12" y2="20.23" xlink:href="#a"/><linearGradient id="I" x1="46.26" y1="20.23" x2="92.38" y2="20.23" xlink:href="#a"/><linearGradient id="J" x1="92.51" y1="20.23" x2="138.63" y2="20.23" xlink:href="#a"/><linearGradient id="K" x1="138.77" y1="20.23" x2="184.89" y2="20.23" xlink:href="#a"/><linearGradient id="L" x1="0" y1="60.21" x2="46.12" y2="60.21" xlink:href="#a"/><linearGradient id="M" x1="46.26" y1="60.21" x2="92.38" y2="60.21" xlink:href="#a"/><linearGradient id="N" x1="92.51" y1="60.21" x2="138.63" y2="60.21" xlink:href="#a"/><linearGradient id="O" x1="138.77" y1="60.21" x2="184.89" y2="60.21" xlink:href="#a"/><linearGradient id="P" x1="0" y1="100.19" x2="46.12" y2="100.19" xlink:href="#a"/><linearGradient id="Q" x1="46.26" y1="100.19" x2="92.38" y2="100.19" xlink:href="#a"/><linearGradient id="R" x1="92.51" y1="100.19" x2="138.63" y2="100.19" xlink:href="#a"/><linearGradient id="S" x1="138.77" y1="100.19" x2="184.89" y2="100.19" xlink:href="#a"/><linearGradient id="T" x1="0" y1="140.17" x2="46.12" y2="140.17" xlink:href="#a"/><linearGradient id="U" x1="46.26" y1="140.17" x2="92.38" y2="140.17" xlink:href="#a"/><linearGradient id="V" x1="92.51" y1="140.17" x2="138.63" y2="140.17" xlink:href="#a"/><linearGradient id="W" x1="138.77" y1="140.17" x2="184.89" y2="140.17" xlink:href="#a"/><linearGradient id="X" x1="0" y1="180.16" x2="46.12" y2="180.16" xlink:href="#a"/><linearGradient id="Y" x1="46.26" y1="180.16" x2="92.38" y2="180.16" xlink:href="#a"/><linearGradient id="Z" x1="92.51" y1="180.16" x2="138.63" y2="180.16" xlink:href="#a"/><linearGradient id="aa" x1="138.77" y1="180.16" x2="184.89" y2="180.16" xlink:href="#a"/><linearGradient id="ab" x1="0" y1="220.14" x2="46.12" y2="220.14" xlink:href="#a"/><linearGradient id="ac" x1="46.26" y1="220.14" x2="92.38" y2="220.14" xlink:href="#a"/><linearGradient id="ad" x1="92.51" y1="220.14" x2="138.63" y2="220.14" xlink:href="#a"/><linearGradient id="ae" x1="138.77" y1="220.14" x2="184.89" y2="220.14" xlink:href="#a"/><linearGradient id="af" x1="0" y1="260.12" x2="46.12" y2="260.12" xlink:href="#a"/><linearGradient id="ag" x1="46.26" y1="260.12" x2="92.38" y2="260.12" xlink:href="#a"/><linearGradient id="ah" x1="92.51" y1="260.12" x2="138.63" y2="260.12" xlink:href="#a"/><linearGradient id="ai" x1="138.77" y1="260.12" x2="184.89" y2="260.12" xlink:href="#a"/><linearGradient id="aj" x1="0" y1="300.1" x2="46.12" y2="300.1" xlink:href="#a"/><linearGradient id="ak" x1="46.26" y1="300.1" x2="92.38" y2="300.1" xlink:href="#a"/><linearGradient id="al" x1="92.51" y1="300.1" x2="138.63" y2="300.1" xlink:href="#a"/><linearGradient id="am" x1="138.77" y1="300.1" x2="184.89" y2="300.1" xlink:href="#a"/></defs><g data-name="Слой 2"><rect x="23.23" y=".5" width="161.6" height="319.7" rx="15.13" ry="15.13" fill="#294dd2"/><g clip-path="url(#b)"><path fill="url(#a)" d="M46.14 320.07l11.53-19.97 11.53-19.97H23.08l11.53 19.97 11.53 19.97z"/><path fill="url(#c)" d="M92.4 320.07l11.53-19.97 11.53-19.97H69.34l11.53 19.97 11.53 19.97z"/><path fill="url(#d)" d="M138.65 320.07l11.54-19.97 11.53-19.97h-46.13l11.53 19.97 11.53 19.97z"/><path fill="url(#e)" d="M184.91 320.07l11.53-19.97 11.53-19.97h-46.12l11.53 19.97 11.53 19.97z"/><path fill="url(#f)" d="M46.14 280.09l11.53-19.97 11.53-19.97H23.08l11.53 19.97 11.53 19.97z"/><path fill="url(#g)" d="M92.4 280.09l11.53-19.97 11.53-19.97H69.34l11.53 19.97 11.53 19.97z"/><path fill="url(#h)" d="M138.65 280.09l11.54-19.97 11.53-19.97h-46.13l11.53 19.97 11.53 19.97z"/><path fill="url(#i)" d="M184.91 280.09l11.53-19.97 11.53-19.97h-46.12l11.53 19.97 11.53 19.97z"/><path fill="url(#j)" d="M46.14 240.11l11.53-19.97 11.53-19.98H23.08l11.53 19.98 11.53 19.97z"/><path fill="url(#k)" d="M92.4 240.11l11.53-19.97 11.53-19.98H69.34l11.53 19.98 11.53 19.97z"/><path fill="url(#l)" d="M138.65 240.11l11.54-19.97 11.53-19.98h-46.13l11.53 19.98 11.53 19.97z"/><path fill="url(#m)" d="M184.91 240.11l11.53-19.97 11.53-19.98h-46.12l11.53 19.98 11.53 19.97z"/><path fill="url(#n)" d="M46.14 200.13l11.53-19.97 11.53-19.98H23.08l11.53 19.98 11.53 19.97z"/><path fill="url(#o)" d="M92.4 200.13l11.53-19.97 11.53-19.98H69.34l11.53 19.98 11.53 19.97z"/><path fill="url(#p)" d="M138.65 200.13l11.54-19.97 11.53-19.98h-46.13l11.53 19.98 11.53 19.97z"/><path fill="url(#q)" d="M184.91 200.13l11.53-19.97 11.53-19.98h-46.12l11.53 19.98 11.53 19.97z"/><path fill="url(#r)" d="M46.14 160.15l11.53-19.98L69.2 120.2H23.08l11.53 19.97 11.53 19.98z"/><path fill="url(#s)" d="M92.4 160.15l11.53-19.98 11.53-19.97H69.34l11.53 19.97 11.53 19.98z"/><path fill="url(#t)" d="M138.65 160.15l11.54-19.98 11.53-19.97h-46.13l11.53 19.97 11.53 19.98z"/><path fill="url(#u)" d="M184.91 160.15l11.53-19.98 11.53-19.97h-46.12l11.53 19.97 11.53 19.98z"/><path fill="url(#v)" d="M46.14 120.17l11.53-19.98L69.2 80.22H23.08l11.53 19.97 11.53 19.98z"/><path fill="url(#w)" d="M92.4 120.17l11.53-19.98 11.53-19.97H69.34l11.53 19.97 11.53 19.98z"/><path fill="url(#x)" d="M138.65 120.17l11.54-19.98 11.53-19.97h-46.13l11.53 19.97 11.53 19.98z"/><path fill="url(#y)" d="M184.91 120.17l11.53-19.98 11.53-19.97h-46.12l11.53 19.97 11.53 19.98z"/><path fill="url(#z)" d="M46.14 80.19l11.53-19.98L69.2 40.24H23.08l11.53 19.97 11.53 19.98z"/><path fill="url(#A)" d="M92.4 80.19l11.53-19.98 11.53-19.97H69.34l11.53 19.97L92.4 80.19z"/><path fill="url(#B)" d="M138.65 80.19l11.54-19.98 11.53-19.97h-46.13l11.53 19.97 11.53 19.98z"/><path fill="url(#C)" d="M184.91 80.19l11.53-19.98 11.53-19.97h-46.12l11.53 19.97 11.53 19.98z"/><path fill="url(#D)" d="M46.14 40.2l11.53-19.97L69.2.26H23.08l11.53 19.97L46.14 40.2z"/><path fill="url(#E)" d="M92.4 40.2l11.53-19.97L115.46.26H69.34l11.53 19.97L92.4 40.2z"/><path fill="url(#F)" d="M138.65 40.2l11.54-19.97L161.72.26h-46.13l11.53 19.97 11.53 19.97z"/><path fill="url(#G)" d="M184.91 40.2l11.53-19.97L207.97.26h-46.12l11.53 19.97 11.53 19.97z"/><path fill="url(#H)" d="M23.06.26l11.53 19.97L46.12 40.2H0l11.53-19.97L23.06.26z"/><path fill="url(#I)" d="M69.32.26l11.53 19.97L92.38 40.2H46.26l11.53-19.97L69.32.26z"/><path fill="url(#J)" d="M115.57.26l11.53 19.97 11.53 19.97H92.51l11.53-19.97L115.57.26z"/><path fill="url(#K)" d="M161.83.26l11.53 19.97 11.53 19.97h-46.12l11.53-19.97L161.83.26z"/><path fill="url(#L)" d="M23.06 40.24l11.53 19.97 11.53 19.98H0l11.53-19.98 11.53-19.97z"/><path fill="url(#M)" d="M69.32 40.24l11.53 19.97 11.53 19.98H46.26l11.53-19.98 11.53-19.97z"/><path fill="url(#N)" d="M115.57 40.24l11.53 19.97 11.53 19.98H92.51l11.53-19.98 11.53-19.97z"/><path fill="url(#O)" d="M161.83 40.24l11.53 19.97 11.53 19.98h-46.12l11.53-19.98 11.53-19.97z"/><path fill="url(#P)" d="M23.06 80.22l11.53 19.97 11.53 19.98H0l11.53-19.98 11.53-19.97z"/><path fill="url(#Q)" d="M69.32 80.22l11.53 19.97 11.53 19.98H46.26l11.53-19.98 11.53-19.97z"/><path fill="url(#R)" d="M115.57 80.22l11.53 19.97 11.53 19.98H92.51l11.53-19.98 11.53-19.97z"/><path fill="url(#S)" d="M161.83 80.22l11.53 19.97 11.53 19.98h-46.12l11.53-19.98 11.53-19.97z"/><path fill="url(#T)" d="M23.06 120.2l11.53 19.97 11.53 19.98H0l11.53-19.98 11.53-19.97z"/><path fill="url(#U)" d="M69.32 120.2l11.53 19.97 11.53 19.98H46.26l11.53-19.98 11.53-19.97z"/><path fill="url(#V)" d="M115.57 120.2l11.53 19.97 11.53 19.98H92.51l11.53-19.98 11.53-19.97z"/><path fill="url(#W)" d="M161.83 120.2l11.53 19.97 11.53 19.98h-46.12l11.53-19.98 11.53-19.97z"/><path fill="url(#X)" d="M23.06 160.18l11.53 19.98 11.53 19.97H0l11.53-19.97 11.53-19.98z"/><path fill="url(#Y)" d="M69.32 160.18l11.53 19.98 11.53 19.97H46.26l11.53-19.97 11.53-19.98z"/><path fill="url(#Z)" d="M115.57 160.18l11.53 19.98 11.53 19.97H92.51l11.53-19.97 11.53-19.98z"/><path fill="url(#aa)" d="M161.83 160.18l11.53 19.98 11.53 19.97h-46.12l11.53-19.97 11.53-19.98z"/><path fill="url(#ab)" d="M23.06 200.16l11.53 19.98 11.53 19.97H0l11.53-19.97 11.53-19.98z"/><path fill="url(#ac)" d="M69.32 200.16l11.53 19.98 11.53 19.97H46.26l11.53-19.97 11.53-19.98z"/><path fill="url(#ad)" d="M115.57 200.16l11.53 19.98 11.53 19.97H92.51l11.53-19.97 11.53-19.98z"/><path fill="url(#ae)" d="M161.83 200.16l11.53 19.98 11.53 19.97h-46.12l11.53-19.97 11.53-19.98z"/><path fill="url(#af)" d="M23.06 240.15l11.53 19.97 11.53 19.97H0l11.53-19.97 11.53-19.97z"/><path fill="url(#ag)" d="M69.32 240.15l11.53 19.97 11.53 19.97H46.26l11.53-19.97 11.53-19.97z"/><path fill="url(#ah)" d="M115.57 240.15l11.53 19.97 11.53 19.97H92.51l11.53-19.97 11.53-19.97z"/><path fill="url(#ai)" d="M161.83 240.15l11.53 19.97 11.53 19.97h-46.12l11.53-19.97 11.53-19.97z"/><path fill="url(#aj)" d="M23.06 280.13l11.53 19.97 11.53 19.97H0l11.53-19.97 11.53-19.97z"/><path fill="url(#ak)" d="M69.32 280.13l11.53 19.97 11.53 19.97H46.26l11.53-19.97 11.53-19.97z"/><path fill="url(#al)" d="M115.57 280.13l11.53 19.97 11.53 19.97H92.51l11.53-19.97 11.53-19.97z"/><path fill="url(#am)" d="M161.83 280.13l11.53 19.97 11.53 19.97h-46.12l11.53-19.97 11.53-19.97z"/></g><rect x="23.23" y=".5" width="161.6" height="319.7" rx="15.13" ry="15.13" stroke="#294dd2" stroke-miterlimit="10" fill="none"/></g></svg>