<svg xmlns="http://www.w3.org/2000/svg" viewBox="0 0 42.39 36.71"><defs><style>.cls-2{fill:#a09df6}.cls-3{fill:#2e51ff}.cls-4{fill:#7080ff}.cls-6{fill:#6d88f8}</style></defs><g id="Слой_2" data-name="Слой 2"><g id="main_layout_copy" data-name="main layout copy"><path fill="#fff" d="M21.19 36.71H0l10.6-18.36L21.19 0l10.6 18.35 10.59 18.36H21.19z"/><path class="cls-2" d="M28.26 12.24L21.19 0v12.24h7.07z"/><path class="cls-3" d="M21.19 24.47V12.24h-7.06l-3.53 6.11 10.59 6.12z"/><path class="cls-4" d="M21.19 0l-7.06 12.24h7.06V0z"/><path d="M21.19 24.47l10.6-6.12-3.53-6.11h-7.07v12.23zm7.07 12.24h14.12l-10.59-6.12-3.53 6.12z" fill="#436cff"/><path class="cls-2" d="M21.19 24.47l10.6 6.12 3.53-6.12-3.53-6.12-10.6 6.12z"/><path class="cls-6" d="M21.19 24.47v12.24h7.07l3.53-6.12-10.6-6.12z"/><path class="cls-6" d="M42.38 36.71l-7.06-12.24-3.53 6.12 10.59 6.12z"/><path class="cls-4" d="M21.19 24.47L10.6 18.35l-3.53 6.12 3.53 6.12 10.59-6.12z"/><path d="M7.07 24.47L0 36.71l10.6-6.12-3.53-6.12zm14.12 0L10.6 30.59l3.53 6.12h7.06V24.47z" fill="#3b71ff"/><path class="cls-3" d="M0 36.71h14.13l-3.53-6.12L0 36.71z"/></g></g></svg>