<svg xmlns="http://www.w3.org/2000/svg" viewBox="0 0 268.12 215.32"><defs><style>.cls-1{fill:#1b44dd;}.cls-2{fill:#2e51ff;}.cls-3,.cls-4{fill:none;stroke:#fff;}.cls-3{stroke-linecap:round;stroke-linejoin:round;stroke-width:1.25px;stroke-dasharray:0.62 4.36;}.cls-4{stroke-miterlimit:10;stroke-width:1.31px;}.cls-18,.cls-5,.cls-6{fill:#fff;}.cls-6{font-size:12.47px;font-family:Montserrat-Bold, Montserrat;font-weight:700;}.cls-15,.cls-6{letter-spacing:0.03em;}.cls-7{letter-spacing:0.04em;}.cls-8{letter-spacing:0.04em;}.cls-9{letter-spacing:0.03em;}.cls-10{letter-spacing:0em;}.cls-11{letter-spacing:0.04em;}.cls-12{letter-spacing:0.03em;}.cls-13{letter-spacing:0.02em;}.cls-14{letter-spacing:0.03em;}.cls-16{letter-spacing:0.02em;}.cls-17{letter-spacing:-0.01em;}.cls-18{font-size:10.5px;font-family:Montserrat-Medium, Montserrat;font-weight:500;letter-spacing:0.04em;}.cls-19{letter-spacing:0.05em;}.cls-20{letter-spacing:0.03em;}.cls-21{letter-spacing:0.03em;}.cls-22{letter-spacing:0.03em;}</style></defs><g id="Layer_2" data-name="Layer 2"><g id="solutions_-_dark_copy" data-name="solutions - dark copy"><polygon class="cls-1" points="36.68 116.69 36.68 177.12 0.79 177.12 16.17 146.14 0 117.24 36.68 116.69"/><circle cx="134.25" cy="107.66" r="107.66"/><path class="cls-2" d="M134.25,0A107.66,107.66,0,1,0,241.91,107.66,107.66,107.66,0,0,0,134.25,0Zm0,207.79A100.13,100.13,0,1,1,234.38,107.66,100.12,100.12,0,0,1,134.25,207.79Z"/><circle class="cls-3" cx="134.25" cy="107.66" r="95.12"/><polygon points="21.39 163.57 36.68 177.12 36.68 162.65 21.39 163.57"/><polygon class="cls-1" points="231.44 116.69 231.44 177.12 267.32 177.12 251.94 146.14 268.12 117.24 231.44 116.69"/><polygon points="246.72 163.57 231.44 177.12 231.44 162.65 246.72 163.57"/><rect class="cls-2" x="21.39" y="103.14" width="225.67" height="60.42"/><line class="cls-4" x1="21.39" y1="108.06" x2="247.24" y2="108.06"/><line class="cls-4" x1="21.39" y1="158.75" x2="247.24" y2="158.75"/><path class="cls-5" d="M149.85,31.35H129.28a10.83,10.83,0,0,0-10.82,10.82V62.74H127V42.17a2.33,2.33,0,0,1,2.29-2.3h20.57Z"/><path class="cls-5" d="M141.74,42.29H130.9a1.06,1.06,0,0,0-1.19,1.17v7.36h12v1.05a2.32,2.32,0,0,1-2.3,2.29h-9.61V62.7h9.61a10.84,10.84,0,0,0,10.83-10.82V42.29Z"/><path class="cls-5" d="M95.31,86.58A6.38,6.38,0,0,1,88.64,80a6.55,6.55,0,0,1,6.63-6.67A6.94,6.94,0,0,1,100.21,75l-1.43,1.71a5.06,5.06,0,0,0-3.6-1.38A4.35,4.35,0,0,0,91,79.91a4.3,4.3,0,0,0,4.37,4.61,5.26,5.26,0,0,0,3.11-1V81.14H94.43l.77-2h5.47v5.4A8.21,8.21,0,0,1,95.31,86.58Z"/><path class="cls-5" d="M107.29,86.58a5,5,0,0,1-5.14-5,5.17,5.17,0,1,1,5.14,5Zm0-8.18a2.92,2.92,0,0,0-2.92,3.11,3,3,0,0,0,3,3.14,2.92,2.92,0,0,0,2.94-3.1A3,3,0,0,0,107.29,78.4Z"/><path class="cls-5" d="M119.18,86.58a5,5,0,0,1-5.15-5,5.18,5.18,0,1,1,5.15,5Zm0-8.18a2.92,2.92,0,0,0-2.92,3.11,3,3,0,0,0,3,3.14,2.91,2.91,0,0,0,2.93-3.1A3,3,0,0,0,119.18,78.4Z"/><path class="cls-5" d="M133.28,86.36V84.74A3.89,3.89,0,0,1,130,86.56c-2.28,0-4.5-1.82-4.5-5s2.19-5.05,4.5-5.05a4,4,0,0,1,3.31,1.7V73h2.22V86.36Zm-2.78-8a2.85,2.85,0,0,0-2.79,3.12,2.88,2.88,0,0,0,2.79,3.12,3.14,3.14,0,0,0,0-6.24Z"/><path class="cls-5" d="M144.76,75.07h-4.52v3.51h3.69v2h-3.69v5.73H138V73h6.78Z"/><path class="cls-5" d="M147.88,75.71l-1.16-1.5L148,72.52l1.16,1.5Zm-1,10.65v-9.7h2.22v9.7Z"/><path class="cls-5" d="M153.53,86.36H151.3v-9.7h2.23v2.18A3.41,3.41,0,0,1,157,76.48l-.82,1.88H156c-1.95,0-2.48,1.73-2.48,4.31Z"/><path class="cls-5" d="M168,76.46c1.81,0,2.9,1.34,2.9,3.71v6.19H169V80.85c0-1.55-.62-2.37-1.68-2.37s-1.77.84-1.77,2.4v5.48h-1.9V80.83c0-1.51-.63-2.35-1.68-2.35s-1.77.92-1.77,2.42v5.46h-1.9v-9.7h1.9v1.47a2.9,2.9,0,0,1,2.52-1.67,2.58,2.58,0,0,1,2.46,1.7A3.3,3.3,0,0,1,168,76.46Z"/><path class="cls-5" d="M176.25,86.54a6.81,6.81,0,0,1-4.12-1.45l1-1.51a5.42,5.42,0,0,0,3.17,1.2c1,0,1.51-.41,1.51-1v0c0-.75-1-1-2.17-1.35-1.43-.41-3-1-3-2.85v0c0-1.84,1.53-3,3.46-3a6.73,6.73,0,0,1,3.56,1.11l-.88,1.58a5.64,5.64,0,0,0-2.74-.92c-.86,0-1.36.4-1.36,1v0c0,.7,1,1,2.19,1.36,1.41.44,3,1.08,3,2.83v0C179.85,85.53,178.27,86.54,176.25,86.54Z"/><text class="cls-6" transform="translate(78.4 128.75)">T<tspan class="cls-7" x="8.08" y="0">OP SO</tspan><tspan class="cls-8" x="52.22" y="0">F</tspan><tspan class="cls-9" x="60.75" y="0">T</tspan><tspan class="cls-10" x="68.79" y="0">W</tspan><tspan class="cls-11" x="83.31" y="0">ARE</tspan><tspan class="cls-7"><tspan x="-35.04" y="15.75">D</tspan><tspan class="cls-12" x="-24.24" y="15.75">E</tspan><tspan class="cls-13" x="-15.5" y="15.75">V</tspan><tspan class="cls-11" x="-5.89" y="15.75">E</tspan><tspan class="cls-14" x="2.97" y="15.75">L</tspan><tspan x="10.85" y="15.75">O</tspan><tspan class="cls-15" x="21.87" y="15.75">P</tspan><tspan class="cls-11" x="31.37" y="15.75">MENT </tspan><tspan class="cls-16" x="75.44" y="15.75">C</tspan><tspan x="84.89" y="15.75">OM</tspan><tspan class="cls-17" x="108.31" y="15.75">P</tspan><tspan class="cls-11" x="117.37" y="15.75">ANY</tspan></tspan></text><text class="cls-18" transform="translate(97.92 182.03)">goo<tspan class="cls-19" x="21.83" y="0">d</tspan><tspan x="29.55" y="0">fi</tspan><tspan class="cls-20" x="37.44" y="0">r</tspan><tspan x="42.09" y="0">ms</tspan><tspan class="cls-21" x="59.29" y="0">.</tspan><tspan class="cls-22" x="61.97" y="0">c</tspan><tspan x="68.3" y="0">o</tspan></text></g></g></svg>