<svg xmlns="http://www.w3.org/2000/svg" viewBox="0 0 109.72 173.35"><defs><style>.cls-1{fill:#efe6d8;}.cls-1,.cls-2,.cls-3,.cls-4,.cls-5,.cls-6,.cls-7{fill-rule:evenodd;}.cls-2{fill:#fff9eb;}.cls-3{fill:#e2cdb0;}.cls-4{fill:#ce9e6a;}.cls-5{fill:#af7f4a;}.cls-6{fill:#966539;}.cls-7{fill:#704521;}.cls-8{fill:#3a3530;}.cls-9{fill:#1c1916;}.cls-10{fill:#666;}</style></defs><title>Ресурс 90</title><g id="Слой_2" data-name="Слой 2"><g id="coffee_cup" data-name="coffee cup"><path class="cls-1" d="M107.05,26.23l.92-3.87h0l-.93,3.87-.39,2,3.06,1.54L108,22.36h.63l-2.69-4.9-2.55-9.69-3.17-3L89.91,2.25,70.72,0,36.23.41,20.92,2,11,5.92,7.55,8.78,6.23,19.29,2.65,23.37l.11,2.76L0,29.9l2.14,4.29,5.21,1.53h0l14,36.94L7.55,36.43l4.39,29.8-.51-1.53-.71,1.84,10.91,66,8.71,8.87L23.06,134,27.14,162l4.24,5.18,8.94,3.92,7.51,2.28,16.6-.13,13.06-3.81,7.76-6.26,1.22-4.56,3.59-23.82,1.58-2.1L100.72,66l-.81-1.74-.31,1V63.68l3.78-29L107.87,33l1.84-3.16-3.07-1.53ZM9.18,11,39.7,15.51l27.76.61-28.17-.61ZM56.23,78.17l-19-1.63,19.24,1.61Zm15.92-1.33-11.74,1,12.45-1.18,7.56-1.12Zm19-48.37L100.74,25l.64-.23Z"/><polygon class="cls-2" points="23.06 134.04 27.14 161.97 31.38 167.15 40.32 171.07 30.34 141.44 23.06 134.04"/><polygon class="cls-1" points="62.51 146.39 40.32 171.07 30.34 141.44 44.49 146.75 62.51 146.39"/><polygon class="cls-3" points="64.43 173.22 62.51 146.39 40.32 171.07 47.83 173.35 64.43 173.22"/><polygon class="cls-1" points="62.51 146.39 86.47 158.59 85.25 163.15 77.49 169.41 64.43 173.22 62.51 146.39"/><polygon class="cls-2" points="90.08 134.64 86.47 158.59 62.51 146.39 77.36 143.42 87.08 138.72 90.08 134.64"/><polygon class="cls-4" points="10.71 66.54 21.64 132.56 30.34 141.44 36.94 78.07 20.82 74.19 10.71 66.54"/><polygon class="cls-5" points="62.51 146.39 36.94 78.07 30.34 141.44 44.49 146.75 62.51 146.39"/><polygon class="cls-6" points="72.36 78.17 56.23 79.6 36.94 78.07 62.51 146.39 72.36 78.17"/><polygon class="cls-5" points="72.36 78.17 62.51 146.39 77.36 143.42 87.08 138.72 91.64 132.67 72.36 78.17"/><polygon class="cls-4" points="72.36 78.17 91.64 132.67 100.72 66.03 96.64 71.64 80.72 76.74 72.36 78.17"/><polygon class="cls-7" points="11.43 64.7 10.71 66.54 20.82 74.19 36.94 78.07 56.23 79.6 72.36 78.17 80.72 76.74 96.64 71.64 100.72 66.03 99.91 64.29 99.6 65.31 96.13 70.52 80.42 75.52 72.15 76.84 56.23 78.17 37.25 76.54 21.33 72.66 11.94 66.23 11.43 64.7"/><polygon class="cls-2" points="11.94 66.23 7.55 36.43 21.33 72.66 11.94 66.23"/><polygon class="cls-1" points="21.33 72.66 37.86 41.53 21.23 40.11 7.35 35.72 21.33 72.66"/><polygon class="cls-2" points="21.33 72.66 37.25 76.54 37.86 41.53 21.33 72.66"/><polygon class="cls-1" points="37.25 76.54 56.74 78.17 72.86 76.64 37.86 41.53 37.25 76.54"/><polygon class="cls-3" points="72.86 76.64 73.07 41.53 57.76 42.35 37.86 41.53 72.86 76.64"/><polygon class="cls-1" points="72.86 76.64 103.38 34.7 92.56 38.88 73.07 41.53 72.86 76.64"/><polygon class="cls-2" points="72.86 76.64 80.42 75.52 96.13 70.52 99.6 65.31 99.6 63.68 103.38 34.7 72.86 76.64"/><polygon class="cls-8" points="3.06 31.43 7.35 35.72 21.23 40.11 37.86 41.53 39.6 36.43 21.94 34.9 6.02 29.8 3.06 31.43"/><polygon class="cls-9" points="37.86 41.53 57.76 42.35 73.07 41.53 73.07 36.02 57.66 36.43 39.6 36.43 37.86 41.53"/><polygon class="cls-8" points="73.07 41.53 92.56 38.88 103.38 34.7 103.58 30 92.05 33.47 73.07 36.02 73.07 41.53"/><polygon class="cls-9" points="103.38 34.7 107.87 32.96 109.7 29.8 106.64 28.27 103.58 30 103.38 34.7"/><polygon class="cls-9" points="7.35 35.72 2.14 34.19 0 29.9 2.75 26.13 6.02 29.8 3.06 31.43 7.35 35.72"/><polygon class="cls-10" points="2.65 23.37 7.76 28.57 18.06 28.06 7.86 22.86 6.22 19.29 2.65 23.37"/><polygon class="cls-8" points="7.76 28.57 22.14 32.96 39.49 34.8 39.39 30.92 18.06 28.06 7.76 28.57"/><polygon class="cls-9" points="39.49 34.8 72.25 34.49 71.74 30.41 39.39 30.92 39.49 34.8"/><polygon class="cls-8" points="72.25 34.49 92.05 31.94 103.48 28.47 107.05 26.23 107.97 22.35 102.87 24.19 91.13 28.47 71.74 30.41 72.25 34.49"/><polygon class="cls-10" points="107.98 22.36 109.72 29.81 106.66 28.27 107.05 26.23 107.98 22.36"/><polygon class="cls-1" points="2.65 23.37 2.75 26.13 6.02 29.8 21.94 34.9 39.6 36.43 57.66 36.43 73.07 36.02 92.05 33.47 103.58 30 106.64 28.27 107.05 26.23 103.48 28.47 92.05 31.94 72.25 34.49 39.49 34.8 22.14 32.96 7.76 28.57 2.65 23.37"/><polygon class="cls-10" points="6.22 19.29 7.55 8.78 9.19 11.02 7.86 22.86 6.22 19.29"/><polygon class="cls-9" points="9.19 11.02 7.86 22.86 18.06 28.06 9.19 11.02"/><polygon class="cls-8" points="9.19 11.02 18.06 28.06 39.29 15.51 9.19 11.02"/><polygon class="cls-10" points="18.06 28.06 39.39 30.92 39.29 15.51 18.06 28.06"/><polygon class="cls-8" points="39.39 30.92 67.46 16.12 39.29 15.51 39.39 30.92"/><polygon class="cls-9" points="39.39 30.92 71.74 30.41 67.46 16.12 39.39 30.92"/><polygon class="cls-8" points="71.74 30.41 84.19 14.8 67.46 16.12 71.74 30.41"/><polygon class="cls-10" points="71.74 30.41 91.13 28.47 84.19 14.8 71.74 30.41"/><polygon class="cls-8" points="91.13 28.47 100.74 24.96 98.79 11.12 84.19 14.8 91.13 28.47"/><polygon class="cls-9" points="100.74 24.96 107.97 22.35 103.58 22.45 102.66 10.82 103.38 7.76 98.79 11.12 100.74 24.96"/><polygon class="cls-10" points="103.38 7.76 102.66 10.82 103.58 22.45 108.62 22.35 105.93 17.45 103.38 7.76"/><polygon class="cls-10" points="7.55 8.78 9.19 11.02 39.7 15.51 67.46 16.12 84.19 14.8 98.79 11.12 103.38 7.76 100.22 4.8 89.91 2.25 70.72 0 36.23 0.41 20.92 2.04 11.02 5.92 7.55 8.78"/><polygon class="cls-8" points="15.51 7.86 18.37 10.41 38.88 13.47 67.56 13.78 84.09 12.25 90.01 10.21 93.68 7.55 91.85 5.1 82.15 2.45 69.7 1.94 35 2.35 18.47 5.41 15.51 7.86"/><polygon class="cls-9" points="18.37 10.41 18.88 7.76 35.41 4.8 56.54 3.78 81.64 5 90.32 6.94 90.01 10.21 93.68 7.55 91.85 5.1 82.15 2.45 69.7 1.94 35 2.35 18.47 5.41 15.51 7.86 18.37 10.41"/></g></g></svg>