<svg xmlns="http://www.w3.org/2000/svg" viewBox="0 0 86.55 254.88"><defs><style>.cls-1{fill:none;stroke-miterlimit:10;}.cls-1,.cls-3{stroke:#294dd2;}.cls-2{fill:#294dd2;}.cls-3{stroke-linecap:round;stroke-linejoin:round;stroke-width:0.75px;}</style></defs><title>Ресурс 86</title><g id="Слой_2" data-name="Слой 2"><g id="main_layout_copy" data-name="main layout copy"><circle class="cls-1" cx="43.07" cy="31.55" r="31.05"/><path class="cls-2" d="M44.18,12.63c7.59,0,12.67,4.4,12.67,10.91a9,9,0,0,1-2.51,6.56,29.22,29.22,0,0,1-3.6,3l-1.2.86c-1.65,1.2-2.39,2.85-2.51,5.42V40H40v-.4c.12-4,.23-4.8,1.14-6.45.63-1.26,1.6-2.23,4.28-4.46,2.58-2.05,3.26-3.19,3.26-5.31,0-2.57-1.83-4.28-4.57-4.28-3.65,0-5.42,2.06-5.59,6.57H30.7C31.1,17.31,36,12.63,44.18,12.63Zm3.36,38.94H39.27V43.41h8.27Z"/><polygon class="cls-3" points="76.27 215.16 72.19 243.11 67.95 248.3 58.99 252.22 68.98 222.57 76.27 215.16"/><polygon class="cls-3" points="36.79 227.52 58.99 252.22 68.98 222.57 54.82 227.88 36.79 227.52"/><polygon class="cls-3" points="34.87 254.37 36.79 227.52 58.99 252.22 51.48 254.5 34.87 254.37"/><polygon class="cls-3" points="36.79 227.52 12.8 239.73 14.03 244.29 21.79 250.56 34.87 254.37 36.79 227.52"/><polygon class="cls-3" points="9.19 215.76 12.8 239.73 36.79 227.52 21.93 224.54 12.19 219.84 9.19 215.76"/><polygon class="cls-3" points="85.46 145.55 86.18 147.39 78.52 155.25 62.38 159.13 43.07 160.67 26.93 159.24 18.56 157.81 4.46 153.72 0.38 148.1 1.19 146.37 1.5 147.39 4.97 152.6 18.86 156.58 27.14 157.91 43.07 159.24 62.07 157.6 78.01 153.72 84.95 147.08 85.46 145.55"/><polygon class="cls-3" points="85.16 146.49 85.46 145.55 78.31 138.71 62.07 135.26 42.73 134.24 26.64 136.1 18.3 137.75 4.32 142.21 1.19 146.37 1.5 147.39 1.93 148.08 4.86 143.32 18.64 138.97 26.88 137.42 42.77 135.67 61.81 136.8 77.84 140.25 84.95 147.08 85.16 146.49"/><polygon class="cls-3" points="78.01 153.72 77.84 140.25 62.07 157.6 78.01 153.72"/><polygon class="cls-3" points="77.84 140.25 61.81 136.8 62.07 157.6 77.84 140.25"/><polygon class="cls-3" points="61.81 136.8 62.07 157.6 43.07 159.24 61.81 136.8"/><polygon class="cls-3" points="42.77 135.67 43.07 159.24 61.81 136.8 42.77 135.67"/><polygon class="cls-3" points="42.77 135.67 43.07 159.24 27.14 157.91 42.77 135.67"/><polygon class="cls-3" points="42.77 135.67 27.14 157.91 26.88 137.42 42.77 135.67"/><polygon class="cls-3" points="26.88 137.42 27.14 157.91 18.86 156.58 26.88 137.42"/><polygon class="cls-3" points="18.86 156.58 18.64 138.97 26.88 137.42 18.86 156.58"/><polygon class="cls-3" points="4.86 143.32 4.97 152.6 1.93 148.08 4.86 143.32"/><polygon class="cls-3" points="76.83 172.44 82.91 169.73 76.27 215.16 76.83 172.44"/><polygon class="cls-3" points="64.11 175.89 78.52 155.25 62.38 159.13 64.11 175.89"/><polygon class="cls-3" points="76.83 172.44 78.52 155.25 64.11 175.89 76.83 172.44"/><polygon class="cls-3" points="82.91 169.73 86.18 147.39 78.52 155.25 76.83 172.44 82.91 169.73"/><polygon class="cls-3" points="62.38 159.13 42.22 177.55 55.71 176.96 64.11 175.89 62.38 159.13"/><polygon class="cls-3" points="43.07 160.67 42.22 177.55 62.38 159.13 43.07 160.67"/><polygon class="cls-3" points="43.07 160.67 21.81 175.55 26.93 159.24 43.07 160.67"/><polygon class="cls-3" points="42.22 177.55 21.81 175.55 43.07 160.67 42.22 177.55"/><polygon class="cls-3" points="26.93 159.24 3.12 169.19 11.15 173.83 21.81 175.55 26.93 159.24"/><polygon class="cls-3" points="54.82 227.88 42.22 177.55 21.93 224.54 36.79 227.52 54.82 227.88"/><polygon class="cls-3" points="64.11 175.89 42.22 177.55 54.82 227.88 64.11 175.89"/><polygon class="cls-3" points="76.83 172.44 64.11 175.89 54.82 227.88 68.98 222.57 76.27 215.16 76.83 172.44"/><polygon class="cls-3" points="11.15 173.83 21.81 175.55 42.22 177.55 21.93 224.54 11.15 173.83"/><polygon class="cls-3" points="3.12 169.19 9.19 215.76 12.19 219.84 21.93 224.54 11.15 173.83 3.12 169.19"/><polygon class="cls-3" points="77.84 140.25 78.01 153.72 84.95 147.08 77.84 140.25"/><polygon class="cls-3" points="18.64 138.97 4.97 152.6 4.86 143.32 18.64 138.97"/><polygon class="cls-3" points="18.64 138.97 18.86 156.58 4.97 152.6 18.64 138.97"/><polygon class="cls-3" points="0.38 148.1 3.12 169.19 4.46 153.72 0.38 148.1"/><polygon class="cls-3" points="26.93 159.24 18.56 157.81 4.46 153.72 3.12 169.19 26.93 159.24"/></g></g></svg>