<svg xmlns="http://www.w3.org/2000/svg" viewBox="0 0 85.8 254"><defs><style>.cls-1{fill:#d1d0cd;}.cls-2{fill:#b000ff;}.cls-3{fill:#d400ff;}.cls-4{fill:#f0f;}.cls-5{fill:#fff;}.cls-6{fill:#bcbbbb;}.cls-7{fill:#999898;}.cls-8{fill:#666;}.cls-9{fill:#edece8;}.cls-10{fill:#294dd2;}</style></defs><title>Ресурс 91</title><g id="Слой_2" data-name="Слой 2"><g id="mystery_cup_copy" data-name="mystery cup copy"><polygon class="cls-1" points="85.09 145.05 77.94 138.21 61.7 134.76 42.36 133.74 26.26 135.6 17.93 137.25 3.95 141.71 0.82 145.87 0 147.6 2.75 168.69 8.82 215.26 12.43 239.23 13.65 243.79 21.42 250.05 34.49 253.87 51.11 254 58.62 251.72 67.57 247.8 71.81 242.61 75.9 214.66 82.53 169.23 85.8 146.89 85.09 145.05"/><polygon class="cls-2" points="75.9 214.66 71.81 242.61 67.57 247.8 58.62 251.72 68.61 222.07 75.9 214.66"/><polygon class="cls-3" points="36.41 227.02 58.62 251.72 68.61 222.07 54.44 227.38 36.41 227.02"/><polygon class="cls-4" points="34.49 253.87 36.41 227.02 58.62 251.72 51.11 254 34.49 253.87"/><polygon class="cls-3" points="36.41 227.02 12.43 239.23 13.65 243.79 21.42 250.06 34.49 253.87 36.41 227.02"/><polygon class="cls-2" points="8.82 215.26 12.43 239.23 36.41 227.02 21.55 224.04 11.81 219.34 8.82 215.26"/><polygon class="cls-5" points="85.09 145.05 85.8 146.89 78.14 154.75 62 158.63 42.7 160.17 26.56 158.74 18.18 157.31 4.09 153.22 0 147.6 0.82 145.87 1.12 146.89 4.6 152.1 18.49 156.08 26.76 157.41 42.7 158.74 61.7 157.1 77.63 153.22 84.58 146.58 85.09 145.05"/><polygon class="cls-5" points="84.78 145.99 85.09 145.05 77.94 138.21 61.7 134.76 42.36 133.74 26.26 135.6 17.93 137.25 3.95 141.71 0.82 145.87 1.12 146.89 1.56 147.58 4.49 142.82 18.27 138.47 26.5 136.92 42.4 135.17 61.43 136.3 77.47 139.75 84.58 146.58 84.78 145.99"/><polygon class="cls-6" points="77.63 153.22 77.47 139.75 61.7 157.1 77.63 153.22"/><polygon class="cls-7" points="77.47 139.75 61.43 136.3 61.7 157.1 77.47 139.75"/><polygon class="cls-6" points="61.43 136.3 61.7 157.1 42.7 158.74 61.43 136.3"/><polygon class="cls-7" points="42.4 135.17 42.7 158.74 61.43 136.3 42.4 135.17"/><polygon class="cls-6" points="42.4 135.17 42.7 158.74 26.76 157.41 42.4 135.17"/><polygon class="cls-7" points="42.4 135.17 26.76 157.41 26.5 136.92 42.4 135.17"/><polygon class="cls-6" points="26.5 136.92 26.76 157.41 18.49 156.08 26.5 136.92"/><polygon class="cls-7" points="18.49 156.08 18.27 138.47 26.5 136.92 18.49 156.08"/><polygon class="cls-8" points="4.49 142.82 4.6 152.1 1.56 147.58 4.49 142.82"/><polygon class="cls-2" points="76.45 171.94 82.53 169.23 75.9 214.66 76.45 171.94"/><polygon class="cls-1" points="63.74 175.39 78.14 154.75 62 158.63 63.74 175.39"/><polygon class="cls-9" points="76.45 171.94 78.14 154.75 63.74 175.39 76.45 171.94"/><polygon class="cls-7" points="82.53 169.23 85.8 146.89 78.14 154.75 76.45 171.94 82.53 169.23"/><polygon class="cls-9" points="62 158.63 41.85 177.05 55.33 176.46 63.74 175.39 62 158.63"/><polygon class="cls-1" points="42.7 160.17 41.85 177.05 62 158.63 42.7 160.17"/><polygon class="cls-1" points="42.7 160.17 21.44 175.05 26.56 158.74 42.7 160.17"/><polygon class="cls-9" points="41.85 177.05 21.44 175.05 42.7 160.17 41.85 177.05"/><polygon class="cls-9" points="26.56 158.74 2.75 168.69 10.78 173.33 21.44 175.05 26.56 158.74"/><polygon class="cls-4" points="54.44 227.38 41.85 177.05 21.55 224.04 36.41 227.02 54.44 227.38"/><polygon class="cls-3" points="63.74 175.39 41.85 177.05 54.44 227.38 63.74 175.39"/><polygon class="cls-4" points="76.45 171.94 63.74 175.39 54.44 227.38 68.61 222.07 75.9 214.66 76.45 171.94"/><polygon class="cls-3" points="10.78 173.33 21.44 175.05 41.85 177.05 21.55 224.04 10.78 173.33"/><polygon class="cls-4" points="2.75 168.69 8.82 215.26 11.81 219.34 21.55 224.04 10.78 173.33 2.75 168.69"/><polygon class="cls-8" points="77.47 139.75 77.63 153.22 84.58 146.58 77.47 139.75"/><circle class="cls-4" cx="42.7" cy="31.05" r="31.05"/><path class="cls-10" d="M43.8,12.13c7.6,0,12.68,4.4,12.68,10.91A9,9,0,0,1,54,29.6a29.15,29.15,0,0,1-3.59,3l-1.2.86c-1.66,1.2-2.4,2.85-2.51,5.42v.63H39.58v-.4c.11-4,.22-4.8,1.14-6.45.63-1.26,1.6-2.23,4.28-4.46,2.57-2.05,3.25-3.19,3.25-5.31,0-2.57-1.82-4.28-4.56-4.28-3.66,0-5.43,2.06-5.6,6.57H30.33C30.73,16.81,35.58,12.13,43.8,12.13Zm3.37,38.94H38.89V42.91h8.28Z"/><polygon class="cls-7" points="18.27 138.47 4.6 152.1 4.49 142.82 18.27 138.47"/><polygon class="cls-6" points="18.27 138.47 18.49 156.08 4.6 152.1 18.27 138.47"/><polygon class="cls-9" points="0 147.6 2.75 168.69 4.09 153.22 0 147.6"/><polygon class="cls-1" points="26.56 158.74 18.18 157.31 4.09 153.22 2.75 168.69 26.56 158.74"/></g></g></svg>