<svg xmlns="http://www.w3.org/2000/svg" xmlns:xlink="http://www.w3.org/1999/xlink" viewBox="0 0 207.97 320.7"><defs><style>.cls-1,.cls-68{fill:none;}.cls-2{fill:#294dd2;}.cls-3{clip-path:url(#clip-path);}.cls-4{fill:url(#linear-gradient);}.cls-5{fill:url(#linear-gradient-2);}.cls-6{fill:url(#linear-gradient-3);}.cls-7{fill:url(#linear-gradient-4);}.cls-8{fill:url(#linear-gradient-5);}.cls-9{fill:url(#linear-gradient-6);}.cls-10{fill:url(#linear-gradient-7);}.cls-11{fill:url(#linear-gradient-8);}.cls-12{fill:url(#linear-gradient-9);}.cls-13{fill:url(#linear-gradient-10);}.cls-14{fill:url(#linear-gradient-11);}.cls-15{fill:url(#linear-gradient-12);}.cls-16{fill:url(#linear-gradient-13);}.cls-17{fill:url(#linear-gradient-14);}.cls-18{fill:url(#linear-gradient-15);}.cls-19{fill:url(#linear-gradient-16);}.cls-20{fill:url(#linear-gradient-17);}.cls-21{fill:url(#linear-gradient-18);}.cls-22{fill:url(#linear-gradient-19);}.cls-23{fill:url(#linear-gradient-20);}.cls-24{fill:url(#linear-gradient-21);}.cls-25{fill:url(#linear-gradient-22);}.cls-26{fill:url(#linear-gradient-23);}.cls-27{fill:url(#linear-gradient-24);}.cls-28{fill:url(#linear-gradient-25);}.cls-29{fill:url(#linear-gradient-26);}.cls-30{fill:url(#linear-gradient-27);}.cls-31{fill:url(#linear-gradient-28);}.cls-32{fill:url(#linear-gradient-29);}.cls-33{fill:url(#linear-gradient-30);}.cls-34{fill:url(#linear-gradient-31);}.cls-35{fill:url(#linear-gradient-32);}.cls-36{fill:url(#linear-gradient-33);}.cls-37{fill:url(#linear-gradient-34);}.cls-38{fill:url(#linear-gradient-35);}.cls-39{fill:url(#linear-gradient-36);}.cls-40{fill:url(#linear-gradient-37);}.cls-41{fill:url(#linear-gradient-38);}.cls-42{fill:url(#linear-gradient-39);}.cls-43{fill:url(#linear-gradient-40);}.cls-44{fill:url(#linear-gradient-41);}.cls-45{fill:url(#linear-gradient-42);}.cls-46{fill:url(#linear-gradient-43);}.cls-47{fill:url(#linear-gradient-44);}.cls-48{fill:url(#linear-gradient-45);}.cls-49{fill:url(#linear-gradient-46);}.cls-50{fill:url(#linear-gradient-47);}.cls-51{fill:url(#linear-gradient-48);}.cls-52{fill:url(#linear-gradient-49);}.cls-53{fill:url(#linear-gradient-50);}.cls-54{fill:url(#linear-gradient-51);}.cls-55{fill:url(#linear-gradient-52);}.cls-56{fill:url(#linear-gradient-53);}.cls-57{fill:url(#linear-gradient-54);}.cls-58{fill:url(#linear-gradient-55);}.cls-59{fill:url(#linear-gradient-56);}.cls-60{fill:url(#linear-gradient-57);}.cls-61{fill:url(#linear-gradient-58);}.cls-62{fill:url(#linear-gradient-59);}.cls-63{fill:url(#linear-gradient-60);}.cls-64{fill:url(#linear-gradient-61);}.cls-65{fill:url(#linear-gradient-62);}.cls-66{fill:url(#linear-gradient-63);}.cls-67{fill:url(#linear-gradient-64);}.cls-68{stroke:#294dd2;stroke-miterlimit:10;}</style><clipPath id="clip-path"><rect class="cls-1" x="23.23" y="0.5" width="161.6" height="319.7" rx="15.13" ry="15.13"/></clipPath><linearGradient id="linear-gradient" x1="23.08" y1="1280.31" x2="69.2" y2="1280.31" gradientTransform="matrix(1, 0, 0, -1, 0, 1580.41)" gradientUnits="userSpaceOnUse"><stop offset="0" stop-color="#4741ff"/><stop offset="0.26" stop-color="#4049ff"/><stop offset="0.66" stop-color="#2c60ff"/><stop offset="1" stop-color="#1778ff"/></linearGradient><linearGradient id="linear-gradient-2" x1="69.34" y1="1280.31" x2="115.46" y2="1280.31" xlink:href="#linear-gradient"/><linearGradient id="linear-gradient-3" x1="115.59" y1="1280.31" x2="161.72" y2="1280.31" xlink:href="#linear-gradient"/><linearGradient id="linear-gradient-4" x1="161.85" y1="1280.31" x2="207.97" y2="1280.31" xlink:href="#linear-gradient"/><linearGradient id="linear-gradient-5" x1="23.08" y1="1320.3" x2="69.2" y2="1320.3" xlink:href="#linear-gradient"/><linearGradient id="linear-gradient-6" x1="69.34" y1="1320.3" x2="115.46" y2="1320.3" xlink:href="#linear-gradient"/><linearGradient id="linear-gradient-7" x1="115.59" y1="1320.3" x2="161.72" y2="1320.3" xlink:href="#linear-gradient"/><linearGradient id="linear-gradient-8" x1="161.85" y1="1320.3" x2="207.97" y2="1320.3" xlink:href="#linear-gradient"/><linearGradient id="linear-gradient-9" x1="23.08" y1="1360.28" x2="69.2" y2="1360.28" xlink:href="#linear-gradient"/><linearGradient id="linear-gradient-10" x1="69.34" y1="1360.28" x2="115.46" y2="1360.28" xlink:href="#linear-gradient"/><linearGradient id="linear-gradient-11" x1="115.59" y1="1360.28" x2="161.72" y2="1360.28" xlink:href="#linear-gradient"/><linearGradient id="linear-gradient-12" x1="161.85" y1="1360.28" x2="207.97" y2="1360.28" xlink:href="#linear-gradient"/><linearGradient id="linear-gradient-13" x1="23.08" y1="1400.26" x2="69.2" y2="1400.26" xlink:href="#linear-gradient"/><linearGradient id="linear-gradient-14" x1="69.34" y1="1400.26" x2="115.46" y2="1400.26" xlink:href="#linear-gradient"/><linearGradient id="linear-gradient-15" x1="115.59" y1="1400.26" x2="161.72" y2="1400.26" xlink:href="#linear-gradient"/><linearGradient id="linear-gradient-16" x1="161.85" y1="1400.26" x2="207.97" y2="1400.26" xlink:href="#linear-gradient"/><linearGradient id="linear-gradient-17" x1="23.08" y1="1440.24" x2="69.2" y2="1440.24" xlink:href="#linear-gradient"/><linearGradient id="linear-gradient-18" x1="69.34" y1="1440.24" x2="115.46" y2="1440.24" xlink:href="#linear-gradient"/><linearGradient id="linear-gradient-19" x1="115.59" y1="1440.24" x2="161.72" y2="1440.24" xlink:href="#linear-gradient"/><linearGradient id="linear-gradient-20" x1="161.85" y1="1440.24" x2="207.97" y2="1440.24" xlink:href="#linear-gradient"/><linearGradient id="linear-gradient-21" x1="23.08" y1="1480.22" x2="69.2" y2="1480.22" xlink:href="#linear-gradient"/><linearGradient id="linear-gradient-22" x1="69.34" y1="1480.22" x2="115.46" y2="1480.22" xlink:href="#linear-gradient"/><linearGradient id="linear-gradient-23" x1="115.59" y1="1480.22" x2="161.72" y2="1480.22" xlink:href="#linear-gradient"/><linearGradient id="linear-gradient-24" x1="161.85" y1="1480.22" x2="207.97" y2="1480.22" xlink:href="#linear-gradient"/><linearGradient id="linear-gradient-25" x1="23.08" y1="1520.2" x2="69.2" y2="1520.2" xlink:href="#linear-gradient"/><linearGradient id="linear-gradient-26" x1="69.34" y1="1520.2" x2="115.46" y2="1520.2" xlink:href="#linear-gradient"/><linearGradient id="linear-gradient-27" x1="115.59" y1="1520.2" x2="161.72" y2="1520.2" xlink:href="#linear-gradient"/><linearGradient id="linear-gradient-28" x1="161.85" y1="1520.2" x2="207.97" y2="1520.2" xlink:href="#linear-gradient"/><linearGradient id="linear-gradient-29" x1="23.08" y1="1560.18" x2="69.2" y2="1560.18" xlink:href="#linear-gradient"/><linearGradient id="linear-gradient-30" x1="69.34" y1="1560.18" x2="115.46" y2="1560.18" xlink:href="#linear-gradient"/><linearGradient id="linear-gradient-31" x1="115.59" y1="1560.18" x2="161.72" y2="1560.18" xlink:href="#linear-gradient"/><linearGradient id="linear-gradient-32" x1="161.85" y1="1560.18" x2="207.97" y2="1560.18" xlink:href="#linear-gradient"/><linearGradient id="linear-gradient-33" x1="0" y1="20.23" x2="46.12" y2="20.23" gradientTransform="matrix(1, 0, 0, 1, 0, 0)" xlink:href="#linear-gradient"/><linearGradient id="linear-gradient-34" x1="46.26" y1="20.23" x2="92.38" y2="20.23" gradientTransform="matrix(1, 0, 0, 1, 0, 0)" xlink:href="#linear-gradient"/><linearGradient id="linear-gradient-35" x1="92.51" y1="20.23" x2="138.63" y2="20.23" gradientTransform="matrix(1, 0, 0, 1, 0, 0)" xlink:href="#linear-gradient"/><linearGradient id="linear-gradient-36" x1="138.77" y1="20.23" x2="184.89" y2="20.23" gradientTransform="matrix(1, 0, 0, 1, 0, 0)" xlink:href="#linear-gradient"/><linearGradient id="linear-gradient-37" x1="0" y1="60.21" x2="46.12" y2="60.21" gradientTransform="matrix(1, 0, 0, 1, 0, 0)" xlink:href="#linear-gradient"/><linearGradient id="linear-gradient-38" x1="46.26" y1="60.21" x2="92.38" y2="60.21" gradientTransform="matrix(1, 0, 0, 1, 0, 0)" xlink:href="#linear-gradient"/><linearGradient id="linear-gradient-39" x1="92.51" y1="60.21" x2="138.63" y2="60.21" gradientTransform="matrix(1, 0, 0, 1, 0, 0)" xlink:href="#linear-gradient"/><linearGradient id="linear-gradient-40" x1="138.77" y1="60.21" x2="184.89" y2="60.21" gradientTransform="matrix(1, 0, 0, 1, 0, 0)" xlink:href="#linear-gradient"/><linearGradient id="linear-gradient-41" x1="0" y1="100.19" x2="46.12" y2="100.19" gradientTransform="matrix(1, 0, 0, 1, 0, 0)" xlink:href="#linear-gradient"/><linearGradient id="linear-gradient-42" x1="46.26" y1="100.19" x2="92.38" y2="100.19" gradientTransform="matrix(1, 0, 0, 1, 0, 0)" xlink:href="#linear-gradient"/><linearGradient id="linear-gradient-43" x1="92.51" y1="100.19" x2="138.63" y2="100.19" gradientTransform="matrix(1, 0, 0, 1, 0, 0)" xlink:href="#linear-gradient"/><linearGradient id="linear-gradient-44" x1="138.77" y1="100.19" x2="184.89" y2="100.19" gradientTransform="matrix(1, 0, 0, 1, 0, 0)" xlink:href="#linear-gradient"/><linearGradient id="linear-gradient-45" x1="0" y1="140.17" x2="46.12" y2="140.17" gradientTransform="matrix(1, 0, 0, 1, 0, 0)" xlink:href="#linear-gradient"/><linearGradient id="linear-gradient-46" x1="46.26" y1="140.17" x2="92.38" y2="140.17" gradientTransform="matrix(1, 0, 0, 1, 0, 0)" xlink:href="#linear-gradient"/><linearGradient id="linear-gradient-47" x1="92.51" y1="140.17" x2="138.63" y2="140.17" gradientTransform="matrix(1, 0, 0, 1, 0, 0)" xlink:href="#linear-gradient"/><linearGradient id="linear-gradient-48" x1="138.77" y1="140.17" x2="184.89" y2="140.17" gradientTransform="matrix(1, 0, 0, 1, 0, 0)" xlink:href="#linear-gradient"/><linearGradient id="linear-gradient-49" x1="0" y1="180.16" x2="46.12" y2="180.16" gradientTransform="matrix(1, 0, 0, 1, 0, 0)" xlink:href="#linear-gradient"/><linearGradient id="linear-gradient-50" x1="46.26" y1="180.16" x2="92.38" y2="180.16" gradientTransform="matrix(1, 0, 0, 1, 0, 0)" xlink:href="#linear-gradient"/><linearGradient id="linear-gradient-51" x1="92.51" y1="180.16" x2="138.63" y2="180.16" gradientTransform="matrix(1, 0, 0, 1, 0, 0)" xlink:href="#linear-gradient"/><linearGradient id="linear-gradient-52" x1="138.77" y1="180.16" x2="184.89" y2="180.16" gradientTransform="matrix(1, 0, 0, 1, 0, 0)" xlink:href="#linear-gradient"/><linearGradient id="linear-gradient-53" x1="0" y1="220.14" x2="46.12" y2="220.14" gradientTransform="matrix(1, 0, 0, 1, 0, 0)" xlink:href="#linear-gradient"/><linearGradient id="linear-gradient-54" x1="46.26" y1="220.14" x2="92.38" y2="220.14" gradientTransform="matrix(1, 0, 0, 1, 0, 0)" xlink:href="#linear-gradient"/><linearGradient id="linear-gradient-55" x1="92.51" y1="220.14" x2="138.63" y2="220.14" gradientTransform="matrix(1, 0, 0, 1, 0, 0)" xlink:href="#linear-gradient"/><linearGradient id="linear-gradient-56" x1="138.77" y1="220.14" x2="184.89" y2="220.14" gradientTransform="matrix(1, 0, 0, 1, 0, 0)" xlink:href="#linear-gradient"/><linearGradient id="linear-gradient-57" x1="0" y1="260.12" x2="46.12" y2="260.12" gradientTransform="matrix(1, 0, 0, 1, 0, 0)" xlink:href="#linear-gradient"/><linearGradient id="linear-gradient-58" x1="46.26" y1="260.12" x2="92.38" y2="260.12" gradientTransform="matrix(1, 0, 0, 1, 0, 0)" xlink:href="#linear-gradient"/><linearGradient id="linear-gradient-59" x1="92.51" y1="260.12" x2="138.63" y2="260.12" gradientTransform="matrix(1, 0, 0, 1, 0, 0)" xlink:href="#linear-gradient"/><linearGradient id="linear-gradient-60" x1="138.77" y1="260.12" x2="184.89" y2="260.12" gradientTransform="matrix(1, 0, 0, 1, 0, 0)" xlink:href="#linear-gradient"/><linearGradient id="linear-gradient-61" x1="0" y1="300.1" x2="46.12" y2="300.1" gradientTransform="matrix(1, 0, 0, 1, 0, 0)" xlink:href="#linear-gradient"/><linearGradient id="linear-gradient-62" x1="46.26" y1="300.1" x2="92.38" y2="300.1" gradientTransform="matrix(1, 0, 0, 1, 0, 0)" xlink:href="#linear-gradient"/><linearGradient id="linear-gradient-63" x1="92.51" y1="300.1" x2="138.63" y2="300.1" gradientTransform="matrix(1, 0, 0, 1, 0, 0)" xlink:href="#linear-gradient"/><linearGradient id="linear-gradient-64" x1="138.77" y1="300.1" x2="184.89" y2="300.1" gradientTransform="matrix(1, 0, 0, 1, 0, 0)" xlink:href="#linear-gradient"/></defs><title>Ресурс 89</title><g id="Слой_2" data-name="Слой 2"><g id="beer"><rect class="cls-2" x="23.23" y="0.5" width="161.6" height="319.7" rx="15.13" ry="15.13"/><g class="cls-3"><polygon class="cls-4" points="46.14 320.07 57.67 300.1 69.2 280.13 46.14 280.13 23.08 280.13 34.61 300.1 46.14 320.07"/><polygon class="cls-5" points="92.4 320.07 103.93 300.1 115.46 280.13 92.4 280.13 69.34 280.13 80.87 300.1 92.4 320.07"/><polygon class="cls-6" points="138.65 320.07 150.19 300.1 161.72 280.13 138.65 280.13 115.59 280.13 127.12 300.1 138.65 320.07"/><polygon class="cls-7" points="184.91 320.07 196.44 300.1 207.97 280.13 184.91 280.13 161.85 280.13 173.38 300.1 184.91 320.07"/><polygon class="cls-8" points="46.14 280.09 57.67 260.12 69.2 240.15 46.14 240.15 23.08 240.15 34.61 260.12 46.14 280.09"/><polygon class="cls-9" points="92.4 280.09 103.93 260.12 115.46 240.15 92.4 240.15 69.34 240.15 80.87 260.12 92.4 280.09"/><polygon class="cls-10" points="138.65 280.09 150.19 260.12 161.72 240.15 138.65 240.15 115.59 240.15 127.12 260.12 138.65 280.09"/><polygon class="cls-11" points="184.91 280.09 196.44 260.12 207.97 240.15 184.91 240.15 161.85 240.15 173.38 260.12 184.91 280.09"/><polygon class="cls-12" points="46.14 240.11 57.67 220.14 69.2 200.16 46.14 200.16 23.08 200.16 34.61 220.14 46.14 240.11"/><polygon class="cls-13" points="92.4 240.11 103.93 220.14 115.46 200.16 92.4 200.16 69.34 200.16 80.87 220.14 92.4 240.11"/><polygon class="cls-14" points="138.65 240.11 150.19 220.14 161.72 200.16 138.65 200.16 115.59 200.16 127.12 220.14 138.65 240.11"/><polygon class="cls-15" points="184.91 240.11 196.44 220.14 207.97 200.16 184.91 200.16 161.85 200.16 173.38 220.14 184.91 240.11"/><polygon class="cls-16" points="46.14 200.13 57.67 180.16 69.2 160.18 46.14 160.18 23.08 160.18 34.61 180.16 46.14 200.13"/><polygon class="cls-17" points="92.4 200.13 103.93 180.16 115.46 160.18 92.4 160.18 69.34 160.18 80.87 180.16 92.4 200.13"/><polygon class="cls-18" points="138.65 200.13 150.19 180.16 161.72 160.18 138.65 160.18 115.59 160.18 127.12 180.16 138.65 200.13"/><polygon class="cls-19" points="184.91 200.13 196.44 180.16 207.97 160.18 184.91 160.18 161.85 160.18 173.38 180.16 184.91 200.13"/><polygon class="cls-20" points="46.14 160.15 57.67 140.17 69.2 120.2 46.14 120.2 23.08 120.2 34.61 140.17 46.14 160.15"/><polygon class="cls-21" points="92.4 160.15 103.93 140.17 115.46 120.2 92.4 120.2 69.34 120.2 80.87 140.17 92.4 160.15"/><polygon class="cls-22" points="138.65 160.15 150.19 140.17 161.72 120.2 138.65 120.2 115.59 120.2 127.12 140.17 138.65 160.15"/><polygon class="cls-23" points="184.91 160.15 196.44 140.17 207.97 120.2 184.91 120.2 161.85 120.2 173.38 140.17 184.91 160.15"/><polygon class="cls-24" points="46.14 120.17 57.67 100.19 69.2 80.22 46.14 80.22 23.08 80.22 34.61 100.19 46.14 120.17"/><polygon class="cls-25" points="92.4 120.17 103.93 100.19 115.46 80.22 92.4 80.22 69.34 80.22 80.87 100.19 92.4 120.17"/><polygon class="cls-26" points="138.65 120.17 150.19 100.19 161.72 80.22 138.65 80.22 115.59 80.22 127.12 100.19 138.65 120.17"/><polygon class="cls-27" points="184.91 120.17 196.44 100.19 207.97 80.22 184.91 80.22 161.85 80.22 173.38 100.19 184.91 120.17"/><polygon class="cls-28" points="46.14 80.19 57.67 60.21 69.2 40.24 46.14 40.24 23.08 40.24 34.61 60.21 46.14 80.19"/><polygon class="cls-29" points="92.4 80.19 103.93 60.21 115.46 40.24 92.4 40.24 69.34 40.24 80.87 60.21 92.4 80.19"/><polygon class="cls-30" points="138.65 80.19 150.19 60.21 161.72 40.24 138.65 40.24 115.59 40.24 127.12 60.21 138.65 80.19"/><polygon class="cls-31" points="184.91 80.19 196.44 60.21 207.97 40.24 184.91 40.24 161.85 40.24 173.38 60.21 184.91 80.19"/><polygon class="cls-32" points="46.14 40.2 57.67 20.23 69.2 0.26 46.14 0.26 23.08 0.26 34.61 20.23 46.14 40.2"/><polygon class="cls-33" points="92.4 40.2 103.93 20.23 115.46 0.26 92.4 0.26 69.34 0.26 80.87 20.23 92.4 40.2"/><polygon class="cls-34" points="138.65 40.2 150.19 20.23 161.72 0.26 138.65 0.26 115.59 0.26 127.12 20.23 138.65 40.2"/><polygon class="cls-35" points="184.91 40.2 196.44 20.23 207.97 0.26 184.91 0.26 161.85 0.26 173.38 20.23 184.91 40.2"/><polygon class="cls-36" points="23.06 0.26 34.59 20.23 46.12 40.2 23.06 40.2 0 40.2 11.53 20.23 23.06 0.26"/><polygon class="cls-37" points="69.32 0.26 80.85 20.23 92.38 40.2 69.32 40.2 46.26 40.2 57.79 20.23 69.32 0.26"/><polygon class="cls-38" points="115.57 0.26 127.1 20.23 138.63 40.2 115.57 40.2 92.51 40.2 104.04 20.23 115.57 0.26"/><polygon class="cls-39" points="161.83 0.26 173.36 20.23 184.89 40.2 161.83 40.2 138.77 40.2 150.3 20.23 161.83 0.26"/><polygon class="cls-40" points="23.06 40.24 34.59 60.21 46.12 80.19 23.06 80.19 0 80.19 11.53 60.21 23.06 40.24"/><polygon class="cls-41" points="69.32 40.24 80.85 60.21 92.38 80.19 69.32 80.19 46.26 80.19 57.79 60.21 69.32 40.24"/><polygon class="cls-42" points="115.57 40.24 127.1 60.21 138.63 80.19 115.57 80.19 92.51 80.19 104.04 60.21 115.57 40.24"/><polygon class="cls-43" points="161.83 40.24 173.36 60.21 184.89 80.19 161.83 80.19 138.77 80.19 150.3 60.21 161.83 40.24"/><polygon class="cls-44" points="23.06 80.22 34.59 100.19 46.12 120.17 23.06 120.17 0 120.17 11.53 100.19 23.06 80.22"/><polygon class="cls-45" points="69.32 80.22 80.85 100.19 92.38 120.17 69.32 120.17 46.26 120.17 57.79 100.19 69.32 80.22"/><polygon class="cls-46" points="115.57 80.22 127.1 100.19 138.63 120.17 115.57 120.17 92.51 120.17 104.04 100.19 115.57 80.22"/><polygon class="cls-47" points="161.83 80.22 173.36 100.19 184.89 120.17 161.83 120.17 138.77 120.17 150.3 100.19 161.83 80.22"/><polygon class="cls-48" points="23.06 120.2 34.59 140.17 46.12 160.15 23.06 160.15 0 160.15 11.53 140.17 23.06 120.2"/><polygon class="cls-49" points="69.32 120.2 80.85 140.17 92.38 160.15 69.32 160.15 46.26 160.15 57.79 140.17 69.32 120.2"/><polygon class="cls-50" points="115.57 120.2 127.1 140.17 138.63 160.15 115.57 160.15 92.51 160.15 104.04 140.17 115.57 120.2"/><polygon class="cls-51" points="161.83 120.2 173.36 140.17 184.89 160.15 161.83 160.15 138.77 160.15 150.3 140.17 161.83 120.2"/><polygon class="cls-52" points="23.06 160.18 34.59 180.16 46.12 200.13 23.06 200.13 0 200.13 11.53 180.16 23.06 160.18"/><polygon class="cls-53" points="69.32 160.18 80.85 180.16 92.38 200.13 69.32 200.13 46.26 200.13 57.79 180.16 69.32 160.18"/><polygon class="cls-54" points="115.57 160.18 127.1 180.16 138.63 200.13 115.57 200.13 92.51 200.13 104.04 180.16 115.57 160.18"/><polygon class="cls-55" points="161.83 160.18 173.36 180.16 184.89 200.13 161.83 200.13 138.77 200.13 150.3 180.16 161.83 160.18"/><polygon class="cls-56" points="23.06 200.16 34.59 220.14 46.12 240.11 23.06 240.11 0 240.11 11.53 220.14 23.06 200.16"/><polygon class="cls-57" points="69.32 200.16 80.85 220.14 92.38 240.11 69.32 240.11 46.26 240.11 57.79 220.14 69.32 200.16"/><polygon class="cls-58" points="115.57 200.16 127.1 220.14 138.63 240.11 115.57 240.11 92.51 240.11 104.04 220.14 115.57 200.16"/><polygon class="cls-59" points="161.83 200.16 173.36 220.14 184.89 240.11 161.83 240.11 138.77 240.11 150.3 220.14 161.83 200.16"/><polygon class="cls-60" points="23.06 240.15 34.59 260.12 46.12 280.09 23.06 280.09 0 280.09 11.53 260.12 23.06 240.15"/><polygon class="cls-61" points="69.32 240.15 80.85 260.12 92.38 280.09 69.32 280.09 46.26 280.09 57.79 260.12 69.32 240.15"/><polygon class="cls-62" points="115.57 240.15 127.1 260.12 138.63 280.09 115.57 280.09 92.51 280.09 104.04 260.12 115.57 240.15"/><polygon class="cls-63" points="161.83 240.15 173.36 260.12 184.89 280.09 161.83 280.09 138.77 280.09 150.3 260.12 161.83 240.15"/><polygon class="cls-64" points="23.06 280.13 34.59 300.1 46.12 320.07 23.06 320.07 0 320.07 11.53 300.1 23.06 280.13"/><polygon class="cls-65" points="69.32 280.13 80.85 300.1 92.38 320.07 69.32 320.07 46.26 320.07 57.79 300.1 69.32 280.13"/><polygon class="cls-66" points="115.57 280.13 127.1 300.1 138.63 320.07 115.57 320.07 92.51 320.07 104.04 300.1 115.57 280.13"/><polygon class="cls-67" points="161.83 280.13 173.36 300.1 184.89 320.07 161.83 320.07 138.77 320.07 150.3 300.1 161.83 280.13"/></g><rect class="cls-68" x="23.23" y="0.5" width="161.6" height="319.7" rx="15.13" ry="15.13"/></g></g></svg>